<svg width="72" height="78" viewBox="0 0 72 78" fill="none" xmlns="http://www.w3.org/2000/svg">
<path d="M64 9.5L67.5 7.5" stroke="#F9B938" stroke-width="2" stroke-linecap="round"/>
<path d="M65.9999 15.7309L70.0309 15.7536" stroke="#F9B938" stroke-width="2" stroke-linecap="round"/>
<path d="M64.0001 21.9121L67.3762 24.1148" stroke="#F9B938" stroke-width="2" stroke-linecap="round"/>
<path d="M60.0372 26L61.9999 29.521" stroke="#F9B938" stroke-width="2" stroke-linecap="round"/>
<path d="M47.1165 25.9998L44.91 29.3734" stroke="#F9B938" stroke-width="2" stroke-linecap="round"/>
<path d="M53.7824 28.0001L53.7214 32.0308" stroke="#F9B938" stroke-width="2" stroke-linecap="round"/>
<path d="M43.031 9L39.531 7" stroke="#F9B938" stroke-width="2" stroke-linecap="round"/>
<path d="M41.0311 15.2309L37.0001 15.2536" stroke="#F9B938" stroke-width="2" stroke-linecap="round"/>
<path d="M43.0309 21.4121L39.6548 23.6148" stroke="#F9B938" stroke-width="2" stroke-linecap="round"/>
<rect x="6" y="41" width="11" height="11" fill="#D9D9D9"/>
<path d="M32 51.5H39V59.5H49.5V51C49.6667 48 47.8 41.8 39 41H32V51.5Z" fill="#D9D9D9"/>
<rect x="15" y="38" width="17" height="17" rx="3" fill="#7F7369"/>
<rect y="39" width="7" height="15" rx="1" fill="#CECCCA"/>
<path d="M15 33.0555C15 31.9591 15.9532 31.1062 17.0429 31.2277L23.2134 31.9154C23.7175 31.9716 24.2265 31.9683 24.7299 31.9056L29.9538 31.2549C31.0405 31.1195 32 31.9669 32 33.062V33.062C32 34.1123 31.114 34.9448 30.0657 34.8795L23.9722 34.5L16.9415 34.8918C15.8872 34.9506 15 34.1115 15 33.0555V33.0555Z" fill="#7F7369"/>
<path d="M39 72C39.4 70.4 42.5 65.6667 44 63.5C47.6 68.3 48.8333 71.5 49 72.5C49.4 76.5 45.8333 77.8333 44 78C40 78 38.5 74 39 72Z" fill="#70BBEF"/>
<path d="M22 30.5C22 29.6716 22.6716 29 23.5 29V29C24.3284 29 25 29.6716 25 30.5V38H22V30.5Z" fill="#D9D9D9"/>
<circle cx="53.5" cy="15.5" r="9.5" fill="#F9B938"/>
<rect x="48" y="4" width="11" height="5" fill="#F9B938"/>
<path d="M48 2C48 0.89543 48.8954 0 50 0H57C58.1046 0 59 0.895431 59 2V5H48V2Z" fill="#D9D9D9"/>
</svg>
