<svg width="69" height="94" viewBox="0 0 69 94" fill="none" xmlns="http://www.w3.org/2000/svg">
<rect x="17" y="67" width="23" height="10" rx="1" fill="#D9D9D9"/>
<path d="M28.5 46.0001V11.0001C28.6667 8.83343 30.4 4.6001 36 5.0001H47" stroke="#CECCCA" stroke-width="4" stroke-linecap="round"/>
<path d="M28.5 46.0001V11.0001C28.6667 8.83343 30.4 4.6001 36 5.0001H47" stroke="#CECCCA" stroke-width="4" stroke-linecap="round"/>
<path d="M47 0H57C60.3137 0 63 2.68629 63 6V9H47V0Z" fill="#CECCCA"/>
<path d="M53.9998 77.0403L2.99995 77.0403" stroke="#CECCCA" stroke-width="5" stroke-linecap="round" stroke-linejoin="round"/>
<rect x="24" y="46" width="9" height="23" rx="1" fill="#D9D9D9"/>
<path d="M60.5 12.5L66.5 18.5" stroke="#F9B938" stroke-width="4" stroke-linecap="round"/>
<path d="M48.7957 13L44.553 20.3485" stroke="#F9B938" stroke-width="4" stroke-linecap="round"/>
<path d="M55.0881 16L55.3918 24.4798" stroke="#F9B938" stroke-width="4" stroke-linecap="round"/>
</svg>
