<svg width="100" height="86" viewBox="0 0 100 86" fill="none" xmlns="http://www.w3.org/2000/svg">
<path d="M35 86C37.3054 72.3448 53.9111 65.6437 61.3824 64H74C92.1872 69.4621 99.7865 80.9425 100 86H35Z" fill="#FE6D4D"/>
<path d="M87 33H48C47.3984 47.3809 45.2533 53.2908 44 54.9482C52.4224 64.1275 64.304 63.6175 69.192 62.2151C82.4272 64.051 89.2453 58.1354 91 54.9482C87.3904 49.7466 86.8747 38.2271 87 33Z" fill="#966857"/>
<path d="M61.7255 61.5237V56H73.2745V61.5237C72.9765 64.0489 75.634 64.6802 77 64.6802C68.6549 77.9371 60.8562 70.2039 58 64.6802C60.9804 64.3645 61.7255 62.4444 61.7255 61.5237Z" fill="#EAAC9D"/>
<ellipse cx="68" cy="42" rx="15" ry="17" fill="#FFCBBE"/>
<path d="M52.9223 39.9821C57.7689 40.2927 61.1262 36.488 61.6311 34.5469C62.6408 36.3586 69.8097 39.9821 82.8349 39.9821L87 36.8762V29.4999C87 25.4882 84.1223 16.4553 72.6117 12.4177C68.4466 11.5119 58.6777 11.486 52.9223 18.6294C51.0291 20.3117 47.9999 27.1705 48 33.3821L52.9223 39.9821Z" fill="#966857"/>
<path d="M82 66.9831C75.5103 73.0386 75.0028 81.9149 75.1316 86H59.8684C60.1775 76.1957 55.704 69.1333 53 66.6102L59.1053 64L67.6931 70.1277L75.8947 64L82 66.9831Z" fill="#F1F1F4"/>
<rect width="44" height="34" rx="4" fill="#FE6D4D"/>
<path d="M48 25L42 17V23.7826L48 25Z" fill="#FE6D4D"/>
<path d="M52 40L55.7879 52.7841C55.9137 53.2087 56.3038 53.5 56.7467 53.5H67.5" stroke="#565658" stroke-width="2" stroke-linecap="round"/>
<rect x="61" y="50" width="11" height="6" rx="2" fill="#565658"/>
<rect x="6" y="8" width="16.1782" height="3.40594" rx="1.70297" fill="#F1F1F4"/>
<rect x="6" y="16" width="33" height="3" rx="1.5" fill="#F1F1F4"/>
<rect x="6" y="22" width="33" height="3" rx="1.5" fill="#F1F1F4"/>
</svg>
