<svg width="109" height="79" viewBox="0 0 109 79" fill="none" xmlns="http://www.w3.org/2000/svg">
<rect x="96" y="30" width="3" height="83" transform="rotate(90 96 30)" fill="#D9D9D9"/>
<rect x="96" y="47" width="3" height="83" transform="rotate(90 96 47)" fill="#D9D9D9"/>
<rect x="96" y="64" width="3" height="83" transform="rotate(90 96 64)" fill="#D9D9D9"/>
<path d="M27.5 33.5009L23 29.5009" stroke="#72655A" stroke-width="2" stroke-linecap="round"/>
<path d="M23.4284 33.4171L28.0718 29.5845" stroke="#72655A" stroke-width="2" stroke-linecap="round"/>
<path d="M23 50.4475L27.6433 46.6149" stroke="#72655A" stroke-width="2" stroke-linecap="round"/>
<path d="M45.0715 33.5312L40.5715 29.5312" stroke="#72655A" stroke-width="2" stroke-linecap="round"/>
<path d="M40.5 33.4475L45.1433 29.6149" stroke="#72655A" stroke-width="2" stroke-linecap="round"/>
<path d="M63.0715 33.5312L58.5715 29.5312" stroke="#72655A" stroke-width="2" stroke-linecap="round"/>
<path d="M58.5 33.4475L63.1433 29.6149" stroke="#72655A" stroke-width="2" stroke-linecap="round"/>
<path d="M27.5 50.5009L23 46.5009" stroke="#72655A" stroke-width="2" stroke-linecap="round"/>
<path d="M45.0715 50.5312L40.5715 46.5312" stroke="#72655A" stroke-width="2" stroke-linecap="round"/>
<path d="M40.5 50.4475L45.1433 46.6149" stroke="#72655A" stroke-width="2" stroke-linecap="round"/>
<path d="M63.0715 50.5312L58.5715 46.5312" stroke="#72655A" stroke-width="2" stroke-linecap="round"/>
<path d="M58.5 50.4475L63.1433 46.6149" stroke="#72655A" stroke-width="2" stroke-linecap="round"/>
<path d="M23 67.4475L27.6433 63.6149" stroke="#72655A" stroke-width="2" stroke-linecap="round"/>
<path d="M27.5 67.5009L23 63.5009" stroke="#72655A" stroke-width="2" stroke-linecap="round"/>
<path d="M45.0715 67.5312L40.5715 63.5312" stroke="#72655A" stroke-width="2" stroke-linecap="round"/>
<path d="M40.5 67.4475L45.1433 63.6149" stroke="#72655A" stroke-width="2" stroke-linecap="round"/>
<path d="M63.0715 67.5312L58.5715 63.5312" stroke="#72655A" stroke-width="2" stroke-linecap="round"/>
<path d="M58.5 67.4475L63.1433 63.6149" stroke="#72655A" stroke-width="2" stroke-linecap="round"/>
<path d="M63.0715 33.5312L58.5715 29.5312" stroke="#72655A" stroke-width="2" stroke-linecap="round"/>
<path d="M58.5 33.4475L63.1433 29.6149" stroke="#72655A" stroke-width="2" stroke-linecap="round"/>
<path d="M63.0715 50.5312L58.5715 46.5312" stroke="#72655A" stroke-width="2" stroke-linecap="round"/>
<path d="M58.5 50.4475L63.1433 46.6149" stroke="#72655A" stroke-width="2" stroke-linecap="round"/>
<path d="M58.5 67.4475L63.1433 63.6149" stroke="#72655A" stroke-width="2" stroke-linecap="round"/>
<path d="M84.0715 67.5312L79.5715 63.5312" stroke="#72655A" stroke-width="2" stroke-linecap="round"/>
<path d="M84.0715 33.5312L79.5715 29.5312" stroke="#72655A" stroke-width="2" stroke-linecap="round"/>
<path d="M79.5 33.4475L84.1433 29.6149" stroke="#72655A" stroke-width="2" stroke-linecap="round"/>
<rect x="96" y="15" width="3" height="83" transform="rotate(90 96 15)" fill="#D9D9D9"/>
<path d="M27.5 18.5009L23 14.5009" stroke="#72655A" stroke-width="2" stroke-linecap="round"/>
<path d="M23.4284 18.4171L28.0718 14.5845" stroke="#72655A" stroke-width="2" stroke-linecap="round"/>
<path d="M45.0715 18.5312L40.5715 14.5312" stroke="#72655A" stroke-width="2" stroke-linecap="round"/>
<path d="M40.5 18.4475L45.1433 14.6149" stroke="#72655A" stroke-width="2" stroke-linecap="round"/>
<path d="M63.0715 18.5312L58.5715 14.5312" stroke="#72655A" stroke-width="2" stroke-linecap="round"/>
<path d="M58.5 18.4475L63.1433 14.6149" stroke="#72655A" stroke-width="2" stroke-linecap="round"/>
<path d="M84.0715 18.5312L79.5715 14.5312" stroke="#72655A" stroke-width="2" stroke-linecap="round"/>
<path d="M79.5 18.4475L84.1433 14.6149" stroke="#72655A" stroke-width="2" stroke-linecap="round"/>
<path d="M84.0715 50.5312L79.5715 46.5312" stroke="#72655A" stroke-width="2" stroke-linecap="round"/>
<path d="M79.5 50.4475L84.1433 46.6149" stroke="#72655A" stroke-width="2" stroke-linecap="round"/>
<path d="M79.5 67.4475L84.1433 63.6149" stroke="#72655A" stroke-width="2" stroke-linecap="round"/>
<path d="M95.25 75.0001L95.25 4.00013" stroke="#72655A" stroke-width="7" stroke-linecap="round" stroke-linejoin="round"/>
<path d="M13.25 74.9999L13.25 4.00005" stroke="#72655A" stroke-width="7" stroke-linecap="round" stroke-linejoin="round"/>
</svg>
