<svg width="100" height="69" viewBox="0 0 100 69" fill="none" xmlns="http://www.w3.org/2000/svg">
<path d="M46.0963 67.4967C47.3059 68.341 48.8022 68.6714 50.256 68.4154C51.7098 68.1594 53.0022 67.3378 53.8487 66.1315C53.9944 65.9248 54.0977 65.6914 54.1527 65.4448C54.2077 65.1981 54.2133 64.9431 54.1692 64.6943C54.1251 64.4455 54.0322 64.2078 53.8957 63.995C53.7592 63.7821 53.5819 63.5982 53.374 63.4539L48.9158 58.7694L59.09 65.8719C59.4786 66.1443 59.9173 66.3374 60.381 66.4403C60.8446 66.5431 61.324 66.5537 61.7918 66.4713C62.2595 66.3889 62.7063 66.2152 63.1065 65.9601C63.5068 65.705 63.8526 65.3737 64.1241 64.985C64.3963 64.597 64.5892 64.1595 64.6918 63.6972C64.7944 63.2349 64.8047 62.757 64.7221 62.2908C64.6396 61.8245 64.4657 61.3791 64.2105 60.9798C63.9554 60.5806 63.6238 60.2354 63.2349 59.964L54.5692 52.0202L67.522 61.0648C67.9106 61.3372 68.3493 61.5303 68.8129 61.6332C69.2765 61.736 69.756 61.7466 70.2237 61.6642C70.6914 61.5818 71.1382 61.4081 71.5385 61.153C71.9387 60.8979 72.2845 60.5666 72.5561 60.1779C72.8282 59.79 73.0211 59.3524 73.1237 58.8901C73.2263 58.4278 73.2366 57.9499 73.154 57.4837C73.0715 57.0174 72.8976 56.572 72.6425 56.1727C72.3873 55.7735 72.0558 55.4283 71.6668 55.1569L60.1817 45.3672L74.3128 55.2338C74.7014 55.5062 75.1401 55.6993 75.6037 55.8022C76.0674 55.905 76.5468 55.9156 77.0145 55.8332C77.4823 55.7508 77.9291 55.5771 78.3293 55.322C78.7296 55.0669 79.0754 54.7356 79.3469 54.3469C79.6191 53.959 79.8119 53.5214 79.9146 53.0591C80.0172 52.5968 80.0275 52.1189 79.9449 51.6527C79.8623 51.1864 79.6885 50.741 79.4333 50.3417C79.1781 49.9425 78.8466 49.5973 78.4577 49.3259L17.9136 21.5L9.55881 34.77C8.62139 36.2121 8.87683 38.1662 10.2239 39.3151L28.9867 55.3492C29.8422 56.0798 30.7314 56.7696 31.6544 57.4138L46.0963 67.4967Z" fill="#E0AA94"/>
<path d="M78.5502 47.1607L51.1297 27.1563L50.9865 26.9599L51.1151 26.7636L51.2437 26.6335L53.3157 27.7845C55.6399 29.3062 60.9508 31.5542 64.9758 31.5542C67.7295 31.5542 69.3793 30.5112 69.8718 28.4693C70.0215 27.5667 69.8114 26.6408 69.2875 25.8947C68.7636 25.1485 67.9687 24.6428 67.0769 24.4885C64.6423 24.1209 62.3201 23.206 60.2812 21.811L58.9347 20.8955C57.4207 19.8623 55.7054 18.6916 54.439 17.9357C52.862 16.9688 51.1467 16.5 49.1912 16.5C46.2895 16.5 43.3417 17.5357 40.4934 18.537L37.4218 19.6071C36.0964 20.0588 34.7057 20.2836 33.3071 20.2721C29.5611 20.2721 25.8951 18.834 22.3505 17.4449L21.9939 17.3025C21.2643 17.0199 20.4604 17.0025 19.7196 17.2532C18.9787 17.5039 18.347 18.0071 17.9325 18.6769L9.52093 32.2316C9.09269 32.9071 8.91996 33.7163 9.03452 34.5104C9.14908 35.3045 9.54323 36.03 10.1445 36.5535L29.0322 52.9281C29.8862 53.6668 30.7839 54.3712 31.7009 55.0191L46.6583 65.6116C47.1803 65.9815 47.7692 66.2438 48.3914 66.3835C49.0137 66.5231 49.657 66.5374 50.2847 66.4255C50.9124 66.3136 51.5121 66.0777 52.0497 65.7313C52.5872 65.3849 53.052 64.9347 53.4176 64.4065C53.7117 63.9794 53.8267 63.4518 53.7376 62.9391C53.6485 62.4264 53.3625 61.9702 52.942 61.6701L48.4949 58.5213C48.3786 58.4386 48.2806 58.3324 48.2069 58.2095C48.1333 58.0866 48.0856 57.9495 48.0669 57.807C48.0482 57.6645 48.0589 57.5197 48.0983 57.3815C48.1378 57.2434 48.205 57.1151 48.2959 57.0046C48.4605 56.8048 48.6934 56.675 48.9482 56.6409C49.2031 56.6068 49.4613 56.6709 49.6716 56.8205L59.3253 63.6555C60.0633 64.1782 60.9764 64.3829 61.8636 64.2246C62.7509 64.0662 63.5396 63.5579 64.0563 62.8113C64.573 62.0647 64.7753 61.1411 64.6188 60.2436C64.4623 59.3461 63.9597 58.5482 63.2217 58.0256L54.1867 51.6298C54.0704 51.5471 53.9724 51.441 53.8987 51.318C53.8251 51.1951 53.7774 51.0581 53.7587 50.9156C53.74 50.7731 53.7507 50.6282 53.7901 50.4901C53.8295 50.352 53.8968 50.2236 53.9877 50.1131C54.1526 49.9138 54.3854 49.7843 54.6401 49.7503C54.8948 49.7162 55.1529 49.78 55.3633 49.929L67.8144 58.7471C68.1799 59.0059 68.5921 59.1894 69.0277 59.287C69.4632 59.3846 69.9135 59.3945 70.3528 59.3161C70.7921 59.2377 71.2119 59.0726 71.5881 58.8301C71.9643 58.5876 72.2896 58.2725 72.5455 57.9028C72.8013 57.5332 72.9827 57.1161 73.0792 56.6756C73.1757 56.235 73.1855 55.7795 73.108 55.3351C73.0305 54.8907 72.8672 54.4661 72.6275 54.0855C72.3878 53.705 72.0763 53.3759 71.7109 53.1171L59.9003 44.7555C59.783 44.6736 59.684 44.5677 59.6098 44.4447C59.5355 44.3217 59.4875 44.1843 59.469 44.0413C59.4505 43.8984 59.4618 43.7531 59.5022 43.6149C59.5427 43.4767 59.6113 43.3485 59.7038 43.2388C59.8511 43.0611 60.059 42.9458 60.2864 42.9158C60.5137 42.8858 60.7439 42.9433 60.9314 43.0768L74.6538 52.7931C75.0194 53.0519 75.4318 53.2354 75.8675 53.3329C76.3032 53.4305 76.7536 53.4403 77.193 53.3618C77.6324 53.2833 78.0523 53.118 78.4286 52.8754C78.8048 52.6327 79.1302 52.3175 79.386 51.9476C79.6419 51.5778 79.8232 51.1606 79.9197 50.7199C80.0161 50.2792 80.0258 49.8236 79.9482 49.3791C79.8706 48.9345 79.7072 48.5098 79.4673 48.1292C79.2275 47.7486 78.9158 47.4195 78.5502 47.1607Z" fill="#F7DECE"/>
<path d="M46.3164 62.3935C46.1491 63.0364 45.8217 63.5926 45.3866 64.0333L42.9868 66.4316C42.5473 66.8795 41.9987 67.2034 41.3959 67.3707C40.7931 67.5381 40.1573 67.543 39.552 67.3851C38.9409 67.2249 38.3827 66.9049 37.9338 66.4575C37.4849 66.0101 37.1613 65.4512 36.9956 64.8374C36.8299 64.2236 36.8281 63.5765 36.9903 62.9618C37.1526 62.347 37.4731 61.7863 37.9195 61.3364L40.3193 58.9381C40.7588 58.4901 41.3074 58.1663 41.9102 57.9989C42.513 57.8316 43.1488 57.8266 43.7541 57.9845C44.6737 58.2278 45.4599 58.8287 45.9402 59.6552C46.4206 60.4818 46.5559 61.4665 46.3164 62.3935ZM21.1135 50.544L24.7061 46.9393C25.1169 46.526 25.4219 46.0183 25.5949 45.4601C25.7679 44.9018 25.8038 44.3095 25.6994 43.7342C25.595 43.1589 25.3535 42.6177 24.9956 42.1572C24.6377 41.6966 24.1742 41.3305 23.6448 41.0904C22.9817 40.7899 22.2434 40.7004 21.5284 40.8338C20.8135 40.9672 20.1559 41.3171 19.6435 41.8368L16.051 45.4415C15.6403 45.855 15.3354 46.3628 15.1625 46.9212C14.9897 47.4796 14.9541 48.0719 15.0587 48.6473C15.1633 49.2226 15.4051 49.7638 15.7632 50.2242C16.1213 50.6846 16.5851 51.0505 17.1146 51.2904C17.7775 51.59 18.5153 51.679 19.2297 51.5457C19.9441 51.4123 20.6012 51.0629 21.1135 50.544ZM33.5525 50.6692C33.9044 50.3382 34.1866 49.9391 34.3821 49.4959C34.5777 49.0527 34.6826 48.5743 34.6906 48.0893C34.6986 47.6043 34.6096 47.1227 34.4289 46.6731C34.2481 46.2235 33.9794 45.8152 33.6386 45.4726C33.2978 45.1299 32.892 44.8599 32.4454 44.6787C31.9988 44.4975 31.5205 44.4087 31.0391 44.4177C30.5577 44.4267 30.083 44.5333 29.6434 44.7311C29.2038 44.929 28.8082 45.214 28.4803 45.5691L21.3048 52.7882C20.9528 53.1192 20.6707 53.5182 20.4751 53.9614C20.2796 54.4047 20.1747 54.8831 20.1666 55.368C20.1586 55.853 20.2476 56.3347 20.4283 56.7842C20.6091 57.2338 20.8779 57.6421 21.2187 57.9848C21.5594 58.3274 21.9652 58.5974 22.4118 58.7786C22.8585 58.9599 23.3367 59.0486 23.8181 59.0396C24.2995 59.0306 24.7742 58.924 25.2138 58.7262C25.6534 58.5284 26.049 58.2434 26.3769 57.8882L33.5525 50.6692ZM38.9305 57.893C39.4144 57.4045 39.7493 56.7866 39.8955 56.1124C40.0416 55.4382 39.993 54.736 39.7554 54.0887C39.5178 53.4415 39.101 52.8763 38.5546 52.4602C38.0081 52.0441 37.3547 51.7944 36.6718 51.7407C36.1561 51.7015 35.6381 51.776 35.1539 51.9589C34.6697 52.1419 34.2308 52.429 33.868 52.8002L29.0755 57.6041C28.5909 58.0924 28.2554 58.7105 28.1088 59.3851C27.9622 60.0597 28.0106 60.7625 28.2483 61.4102C28.486 62.0579 28.903 62.6234 29.45 63.0396C29.9969 63.4559 30.6509 63.7054 31.3343 63.7588C32.4219 63.8455 33.4234 63.4193 34.1381 62.6993L38.9305 57.893ZM78.5013 47.9313L80 46.6262L63.4761 20.5L34.1476 25.2798C33.6812 25.3591 33.2348 25.5303 32.834 25.7834C32.4332 26.0366 32.0858 26.3668 31.8117 26.7552C31.5376 27.1435 31.3421 27.5825 31.2364 28.047C31.1307 28.5115 31.1169 28.9925 31.1957 29.4624C32.7685 35.9518 45.5444 31.1311 51.1663 28.0152L78.5013 47.9313Z" fill="#EAAC9D"/>
<path d="M46.4566 60.2979C46.2886 60.9529 45.9596 61.5195 45.5227 61.9684L43.1121 64.4116C42.6706 64.8679 42.1195 65.1978 41.5141 65.3683C40.9086 65.5388 40.2699 65.5438 39.6619 65.383C39.0481 65.2197 38.4874 64.8937 38.0365 64.438C37.5856 63.9822 37.2605 63.4129 37.094 62.7876C36.9276 62.1622 36.9258 61.5031 37.0888 60.8768C37.2517 60.2506 37.5737 59.6794 38.0221 59.221L40.4326 56.7778C40.8742 56.3215 41.4252 55.9916 42.0307 55.8211C42.6362 55.6506 43.2748 55.6456 43.8828 55.8064C44.8065 56.0543 45.5962 56.6664 46.0787 57.5084C46.5613 58.3504 46.6972 59.3536 46.4566 60.2979ZM21.1409 48.2266L24.7496 44.5544C25.1622 44.1334 25.4685 43.6163 25.6423 43.0476C25.8161 42.4788 25.8521 41.8755 25.7473 41.2894C25.6424 40.7033 25.3998 40.152 25.0403 39.6828C24.6809 39.2137 24.2153 38.8407 23.6835 38.5961C23.0173 38.2907 22.2758 38.1999 21.5578 38.3357C20.8398 38.4716 20.1793 38.8276 19.6643 39.3565L16.0557 43.0287C15.6431 43.4499 15.3369 43.9671 15.1633 44.536C14.9897 45.1049 14.9539 45.7083 15.059 46.2944C15.1641 46.8805 15.4069 47.4318 15.7666 47.9008C16.1264 48.3699 16.5922 48.7426 17.1241 48.987C17.79 49.2922 18.531 49.3829 19.2486 49.2471C19.9662 49.1112 20.6263 48.7553 21.1409 48.2266ZM33.6355 48.3542C33.989 48.017 34.2725 47.6105 34.4689 47.1589C34.6653 46.7074 34.7707 46.22 34.7788 45.726C34.7868 45.2319 34.6974 44.7413 34.5159 44.2833C34.3343 43.8253 34.0643 43.4094 33.722 43.0603C33.3797 42.7112 32.9721 42.4362 32.5235 42.2516C32.0749 42.0669 31.5945 41.9765 31.1109 41.9857C30.6273 41.9949 30.1506 42.1035 29.709 42.305C29.2674 42.5065 28.8701 42.7968 28.5407 43.1587L21.333 50.5128C20.9795 50.85 20.696 51.2565 20.4996 51.708C20.3032 52.1596 20.1978 52.6469 20.1898 53.141C20.1817 53.635 20.2711 54.1257 20.4526 54.5837C20.6342 55.0417 20.9042 55.4576 21.2465 55.8067C21.5888 56.1557 21.9964 56.4308 22.445 56.6154C22.8936 56.8 23.374 56.8905 23.8576 56.8813C24.3412 56.8721 24.8179 56.7635 25.2595 56.562C25.7011 56.3605 26.0985 56.0701 26.4278 55.7083L33.6355 48.3542ZM39.0377 55.7132C39.5237 55.2156 39.8601 54.5861 40.0069 53.8993C40.1537 53.2125 40.1049 52.4971 39.8662 51.8377C39.6275 51.1783 39.2089 50.6026 38.66 50.1787C38.1111 49.7548 37.4548 49.5005 36.7688 49.4457C36.2508 49.4058 35.7305 49.4817 35.2441 49.6681C34.7577 49.8545 34.3169 50.1469 33.9524 50.5251L29.1385 55.4188C28.6517 55.9164 28.3147 56.546 28.1674 57.2332C28.0202 57.9204 28.0688 58.6364 28.3076 59.2962C28.5464 59.956 28.9653 60.5321 29.5147 60.9561C30.0641 61.3802 30.7209 61.6344 31.4074 61.6888C32.4999 61.7771 33.5059 61.3429 34.2237 60.6094L39.0377 55.7132ZM90.7952 37.4235C91.4308 36.8622 91.8464 36.0849 91.9651 35.235C92.0838 34.3852 91.8976 33.5202 91.441 32.7996L91.4338 32.7873L83.1097 16.7912C82.6702 16.0736 82.0002 15.5345 81.2144 15.266C80.4287 14.9975 79.576 15.0164 78.8024 15.3194C74.0197 17.2107 68.7808 19.384 63.6955 17.6179L61.0593 16.6931C56.3822 15.0373 51.297 13.097 46.6535 15.9719C44.9849 16.9752 42.4806 18.7512 40.8648 19.8477C38.8685 21.2098 36.6054 22.1106 34.2334 22.4871C33.7641 22.5664 33.3149 22.7398 32.9115 22.9972C32.5081 23.2547 32.1585 23.5911 31.8829 23.9871C31.6073 24.3832 31.4111 24.831 31.3056 25.3048C31.2001 25.7786 31.1874 26.2691 31.2682 26.748C32.74 32.91 43.9933 28.9753 50.0869 25.8428C50.4673 25.6477 50.8928 25.5631 51.317 25.5981C51.7412 25.6331 52.1479 25.7865 52.4927 26.0415L80.3054 46.6861L90.7952 37.4235Z" fill="#FFCBBE"/>
<path d="M9 41.5L24.5 15L0 0.5V35L9 41.5Z" fill="#FE6D4D"/>
<path d="M84 9L100 37V0L84 9Z" fill="#58585A"/>
<path d="M78.5 13.5L84.5 10L98.5 34.5L92.5 38L78.5 13.5Z" fill="#F1F1F1"/>
</svg>
