<svg width="100" height="100" viewBox="0 0 100 100" fill="none" xmlns="http://www.w3.org/2000/svg">
<rect width="100" height="100" fill="#707070"/>
<path d="M24.1705 43.9091V57H22.5852V43.9091H24.1705ZM22.6875 42.5795L24.2472 39.6136H26.0114L24.017 42.5795H22.6875ZM37.883 48H36.2978C36.204 47.544 36.04 47.1435 35.8056 46.7983C35.5755 46.4531 35.2942 46.1634 34.9618 45.929C34.6337 45.6903 34.2694 45.5114 33.8688 45.392C33.4682 45.2727 33.0506 45.2131 32.6159 45.2131C31.8233 45.2131 31.1053 45.4134 30.4618 45.8139C29.8226 46.2145 29.3134 46.8047 28.9341 47.5845C28.5591 48.3643 28.3716 49.321 28.3716 50.4545C28.3716 51.5881 28.5591 52.5447 28.9341 53.3246C29.3134 54.1044 29.8226 54.6946 30.4618 55.0952C31.1053 55.4957 31.8233 55.696 32.6159 55.696C33.0506 55.696 33.4682 55.6364 33.8688 55.517C34.2694 55.3977 34.6337 55.2209 34.9618 54.9865C35.2942 54.7479 35.5755 54.456 35.8056 54.1108C36.04 53.7614 36.204 53.3608 36.2978 52.9091H37.883C37.7637 53.5781 37.5463 54.1768 37.231 54.7053C36.9157 55.2337 36.5236 55.6832 36.0549 56.054C35.5861 56.4205 35.0598 56.6996 34.476 56.8913C33.8965 57.0831 33.2765 57.179 32.6159 57.179C31.4995 57.179 30.5066 56.9062 29.6373 56.3608C28.7679 55.8153 28.084 55.0398 27.5854 54.0341C27.0868 53.0284 26.8375 51.8352 26.8375 50.4545C26.8375 49.0739 27.0868 47.8807 27.5854 46.875C28.084 45.8693 28.7679 45.0938 29.6373 44.5483C30.5066 44.0028 31.4995 43.7301 32.6159 43.7301C33.2765 43.7301 33.8965 43.826 34.476 44.0178C35.0598 44.2095 35.5861 44.4908 36.0549 44.8615C36.5236 45.228 36.9157 45.6754 37.231 46.2038C37.5463 46.728 37.7637 47.3267 37.883 48ZM51.4901 50.4545C51.4901 51.8352 51.2408 53.0284 50.7422 54.0341C50.2436 55.0398 49.5597 55.8153 48.6903 56.3608C47.821 56.9062 46.8281 57.179 45.7116 57.179C44.5952 57.179 43.6023 56.9062 42.733 56.3608C41.8636 55.8153 41.1797 55.0398 40.6811 54.0341C40.1825 53.0284 39.9332 51.8352 39.9332 50.4545C39.9332 49.0739 40.1825 47.8807 40.6811 46.875C41.1797 45.8693 41.8636 45.0938 42.733 44.5483C43.6023 44.0028 44.5952 43.7301 45.7116 43.7301C46.8281 43.7301 47.821 44.0028 48.6903 44.5483C49.5597 45.0938 50.2436 45.8693 50.7422 46.875C51.2408 47.8807 51.4901 49.0739 51.4901 50.4545ZM49.956 50.4545C49.956 49.321 49.7663 48.3643 49.3871 47.5845C49.0121 46.8047 48.5028 46.2145 47.8594 45.8139C47.2202 45.4134 46.5043 45.2131 45.7116 45.2131C44.919 45.2131 44.201 45.4134 43.5575 45.8139C42.9183 46.2145 42.4091 46.8047 42.0298 47.5845C41.6548 48.3643 41.4673 49.321 41.4673 50.4545C41.4673 51.5881 41.6548 52.5447 42.0298 53.3246C42.4091 54.1044 42.9183 54.6946 43.5575 55.0952C44.201 55.4957 44.919 55.696 45.7116 55.696C46.5043 55.696 47.2202 55.4957 47.8594 55.0952C48.5028 54.6946 49.0121 54.1044 49.3871 53.3246C49.7663 52.5447 49.956 51.5881 49.956 50.4545ZM64.5362 43.9091V57H63.0021L55.8686 46.7216H55.7408V57H54.1555V43.9091H55.6896L62.8487 54.2131H62.9766V43.9091H64.5362ZM78.7537 50.4545C78.7537 51.8352 78.5044 53.0284 78.0059 54.0341C77.5073 55.0398 76.8233 55.8153 75.954 56.3608C75.0847 56.9062 74.0918 57.179 72.9753 57.179C71.8588 57.179 70.8659 56.9062 69.9966 56.3608C69.1273 55.8153 68.4434 55.0398 67.9448 54.0341C67.4462 53.0284 67.1969 51.8352 67.1969 50.4545C67.1969 49.0739 67.4462 47.8807 67.9448 46.875C68.4434 45.8693 69.1273 45.0938 69.9966 44.5483C70.8659 44.0028 71.8588 43.7301 72.9753 43.7301C74.0918 43.7301 75.0847 44.0028 75.954 44.5483C76.8233 45.0938 77.5073 45.8693 78.0059 46.875C78.5044 47.8807 78.7537 49.0739 78.7537 50.4545ZM77.2196 50.4545C77.2196 49.321 77.03 48.3643 76.6507 47.5845C76.2757 46.8047 75.7665 46.2145 75.123 45.8139C74.4838 45.4134 73.7679 45.2131 72.9753 45.2131C72.1827 45.2131 71.4647 45.4134 70.8212 45.8139C70.182 46.2145 69.6728 46.8047 69.2935 47.5845C68.9185 48.3643 68.731 49.321 68.731 50.4545C68.731 51.5881 68.9185 52.5447 69.2935 53.3246C69.6728 54.1044 70.182 54.6946 70.8212 55.0952C71.4647 55.4957 72.1827 55.696 72.9753 55.696C73.7679 55.696 74.4838 55.4957 75.123 55.0952C75.7665 54.6946 76.2757 54.1044 76.6507 53.3246C77.03 52.5447 77.2196 51.5881 77.2196 50.4545Z" fill="white"/>
</svg>
