<svg width="49" height="49" viewBox="0 0 49 49" fill="none" xmlns="http://www.w3.org/2000/svg">
<circle cx="24.5" cy="24.5" r="24.5" fill="url(#paint0_linear_125_48)"/>
<path d="M29.6011 20.2158C29.6011 20.7959 29.3916 21.2529 28.9727 21.5869C28.5566 21.9209 27.9766 22.0879 27.2324 22.0879C26.5469 22.0879 25.9404 21.959 25.4131 21.7012V20.4355C25.8467 20.6289 26.2129 20.7651 26.5117 20.8442C26.8135 20.9233 27.0889 20.9629 27.3379 20.9629C27.6367 20.9629 27.8652 20.9058 28.0234 20.7915C28.1846 20.6772 28.2651 20.5073 28.2651 20.2817C28.2651 20.1558 28.23 20.0444 28.1597 19.9478C28.0894 19.8481 27.9854 19.7529 27.8477 19.6621C27.7129 19.5713 27.436 19.4263 27.0171 19.2271C26.6245 19.0425 26.3301 18.8652 26.1338 18.6953C25.9375 18.5254 25.7808 18.3276 25.6636 18.1021C25.5464 17.8765 25.4878 17.6128 25.4878 17.311C25.4878 16.7427 25.6797 16.2959 26.0635 15.9707C26.4502 15.6455 26.9834 15.4829 27.6631 15.4829C27.9971 15.4829 28.3149 15.5225 28.6167 15.6016C28.9214 15.6807 29.2393 15.792 29.5703 15.9355L29.1309 16.9946C28.7881 16.854 28.5039 16.7559 28.2783 16.7002C28.0557 16.6445 27.8359 16.6167 27.6191 16.6167C27.3613 16.6167 27.1636 16.6768 27.0259 16.7969C26.8882 16.917 26.8193 17.0737 26.8193 17.2671C26.8193 17.3872 26.8472 17.4927 26.9028 17.5835C26.9585 17.6714 27.0464 17.7578 27.1665 17.8428C27.2896 17.9248 27.5781 18.0742 28.0322 18.291C28.6328 18.5781 29.0444 18.8667 29.2671 19.1567C29.4897 19.4438 29.6011 19.7969 29.6011 20.2158ZM33.6309 15.5752L31.2358 22H30.0186L32.4136 15.5752H33.6309Z" fill="white"/>
<path d="M40.3807 30.5433L40.3843 30.5468C40.4593 30.6187 40.5038 30.723 40.4998 30.8482C40.4955 30.9785 40.4409 31.072 40.3827 31.1213L40.3797 31.1238L32.2441 38.0549C32.244 38.055 32.2439 38.0551 32.2438 38.0552C31.8952 38.3513 31.4789 38.5 31.0628 38.5H12.5V34.1667H14.8425H15.4003L15.8226 33.8022L18.3242 31.643C18.3242 31.643 18.3243 31.643 18.3243 31.6429C19.1919 30.8953 20.2518 30.5 21.3328 30.5H29.9434C29.9756 30.5 30.0292 30.5125 30.0857 30.5827C30.1411 30.6514 30.1848 30.7631 30.1618 30.9124C30.1516 30.9776 30.1187 31.0377 30.0584 31.0878C29.9935 31.1416 29.9164 31.1667 29.8519 31.1667H25.6381C24.249 31.1667 23.277 32.3405 23.277 33.5833C23.277 34.8261 24.249 36 25.6381 36H32.0046C33.1511 36 34.2546 35.5894 35.1315 34.8384C35.1322 34.8379 35.1329 34.8373 35.1335 34.8367L40.1023 30.6062L40.107 30.6022C40.1775 30.5416 40.2537 30.5199 40.3066 30.5192C40.3313 30.5189 40.347 30.5231 40.3553 30.5263C40.3622 30.5289 40.3699 30.5329 40.3807 30.5433Z" fill="white" stroke="white" stroke-width="3"/>
<path d="M37 18.5C37 23.2461 33.368 27 29 27C24.632 27 21 23.2461 21 18.5C21 13.7539 24.632 10 29 10C33.368 10 37 13.7539 37 18.5Z" stroke="white" stroke-width="2"/>
<defs>
<linearGradient id="paint0_linear_125_48" x1="24.5" y1="0" x2="24.5" y2="49" gradientUnits="userSpaceOnUse">
<stop stop-color="#FE6D4D"/>
<stop offset="1" stop-color="#FE4920"/>
</linearGradient>
</defs>
</svg>
