<svg width="60" height="60" viewBox="0 0 60 60" fill="none" xmlns="http://www.w3.org/2000/svg">
<g filter="url(#filter0_d_155_4)">
<circle cx="28" cy="29" r="26" fill="url(#paint0_linear_155_4)"/>
</g>
<g clip-path="url(#clip0_155_4)">
<path d="M28.9375 16.4062C28.9375 16.0333 28.7893 15.6756 28.5256 15.4119C28.2619 15.1482 27.9042 15 27.5312 15C27.1583 15 26.8006 15.1482 26.5369 15.4119C26.2732 15.6756 26.125 16.0333 26.125 16.4062V26.1375L21.2331 21.2437C21.1033 21.1095 20.9481 21.0024 20.7765 20.9288C20.6049 20.8552 20.4204 20.8165 20.2336 20.815C20.0469 20.8134 19.8618 20.8491 19.689 20.9199C19.5162 20.9907 19.3592 21.0952 19.2273 21.2273C19.0953 21.3594 18.9909 21.5164 18.9203 21.6893C18.8497 21.8621 18.8142 22.0473 18.8159 22.234C18.8176 22.4208 18.8565 22.6053 18.9303 22.7768C19.0041 22.9483 19.1113 23.1035 19.2456 23.2331L24.1356 28.125H14.4062C14.0333 28.125 13.6756 28.2732 13.4119 28.5369C13.1482 28.8006 13 29.1583 13 29.5312C13 29.9042 13.1482 30.2619 13.4119 30.5256C13.6756 30.7893 14.0333 30.9375 14.4062 30.9375H24.1375L19.2437 35.8294C19.1095 35.9592 19.0024 36.1144 18.9288 36.286C18.8552 36.4576 18.8165 36.6421 18.815 36.8289C18.8134 37.0156 18.8491 37.2007 18.9199 37.3735C18.9907 37.5463 19.0952 37.7033 19.2273 37.8352C19.3594 37.9672 19.5164 38.0716 19.6893 38.1422C19.8621 38.2128 20.0473 38.2483 20.234 38.2466C20.4208 38.2449 20.6053 38.206 20.7768 38.1322C20.9483 38.0584 21.1035 37.9512 21.2331 37.8169L26.125 32.9269V42.6562C26.125 43.0292 26.2732 43.3869 26.5369 43.6506C26.8006 43.9143 27.1583 44.0625 27.5312 44.0625C27.9042 44.0625 28.2619 43.9143 28.5256 43.6506C28.7893 43.3869 28.9375 43.0292 28.9375 42.6562V32.925L33.8294 37.8188C33.9592 37.953 34.1144 38.0601 34.286 38.1337C34.4576 38.2073 34.6421 38.246 34.8289 38.2475C35.0156 38.2491 35.2007 38.2134 35.3735 38.1426C35.5463 38.0718 35.7033 37.9673 35.8352 37.8352C35.9672 37.7031 36.0716 37.5461 36.1422 37.3732C36.2128 37.2004 36.2483 37.0152 36.2466 36.8284C36.2449 36.6417 36.206 36.4572 36.1322 36.2857C36.0584 36.1142 35.9512 35.959 35.8169 35.8294L30.9269 30.9375H40.6562C41.0292 30.9375 41.3869 30.7893 41.6506 30.5256C41.9143 30.2619 42.0625 29.9042 42.0625 29.5312C42.0625 29.1583 41.9143 28.8006 41.6506 28.5369C41.3869 28.2732 41.0292 28.125 40.6562 28.125H30.925L35.8188 23.2331C36.0748 22.9678 36.2164 22.6125 36.213 22.2438C36.2096 21.8751 36.0616 21.5224 35.8007 21.2618C35.5398 21.0012 35.1871 20.8535 34.8183 20.8505C34.4496 20.8474 34.0945 20.9893 33.8294 21.2456L28.9375 26.1356V16.4062Z" fill="white"/>
</g>
<defs>
<filter id="filter0_d_155_4" x="0" y="0" width="60" height="60" filterUnits="userSpaceOnUse" color-interpolation-filters="sRGB">
<feFlood flood-opacity="0" result="BackgroundImageFix"/>
<feColorMatrix in="SourceAlpha" type="matrix" values="0 0 0 0 0 0 0 0 0 0 0 0 0 0 0 0 0 0 127 0" result="hardAlpha"/>
<feOffset dx="2" dy="1"/>
<feGaussianBlur stdDeviation="2"/>
<feComposite in2="hardAlpha" operator="out"/>
<feColorMatrix type="matrix" values="0 0 0 0 0.223529 0 0 0 0 0.223529 0 0 0 0 0.223529 0 0 0 1 0"/>
<feBlend mode="normal" in2="BackgroundImageFix" result="effect1_dropShadow_155_4"/>
<feBlend mode="normal" in="SourceGraphic" in2="effect1_dropShadow_155_4" result="shape"/>
</filter>
<linearGradient id="paint0_linear_155_4" x1="28" y1="3" x2="28" y2="55" gradientUnits="userSpaceOnUse">
<stop stop-color="#858585"/>
<stop offset="1" stop-color="#565658"/>
</linearGradient>
<clipPath id="clip0_155_4">
<rect width="30" height="30" fill="white" transform="translate(13 15)"/>
</clipPath>
</defs>
</svg>
