<svg width="52" height="52" viewBox="0 0 52 52" fill="none" xmlns="http://www.w3.org/2000/svg">
<circle cx="26" cy="26" r="26" fill="url(#paint0_linear_155_4)"/>
<g clip-path="url(#clip0_155_4)">
<path d="M26.9375 13.4062C26.9375 13.0333 26.7893 12.6756 26.5256 12.4119C26.2619 12.1482 25.9042 12 25.5312 12C25.1583 12 24.8006 12.1482 24.5369 12.4119C24.2732 12.6756 24.125 13.0333 24.125 13.4062V23.1375L19.2331 18.2437C19.1033 18.1095 18.9481 18.0024 18.7765 17.9288C18.6049 17.8552 18.4204 17.8165 18.2336 17.815C18.0469 17.8134 17.8618 17.8491 17.689 17.9199C17.5162 17.9907 17.3592 18.0952 17.2273 18.2273C17.0953 18.3594 16.9909 18.5164 16.9203 18.6893C16.8497 18.8621 16.8142 19.0473 16.8159 19.234C16.8176 19.4208 16.8565 19.6053 16.9303 19.7768C17.0041 19.9483 17.1113 20.1035 17.2456 20.2331L22.1356 25.125H12.4062C12.0333 25.125 11.6756 25.2732 11.4119 25.5369C11.1482 25.8006 11 26.1583 11 26.5312C11 26.9042 11.1482 27.2619 11.4119 27.5256C11.6756 27.7893 12.0333 27.9375 12.4062 27.9375H22.1375L17.2437 32.8294C17.1095 32.9592 17.0024 33.1144 16.9288 33.286C16.8552 33.4576 16.8165 33.6421 16.815 33.8289C16.8134 34.0156 16.8491 34.2007 16.9199 34.3735C16.9907 34.5463 17.0952 34.7033 17.2273 34.8352C17.3594 34.9672 17.5164 35.0716 17.6893 35.1422C17.8621 35.2128 18.0473 35.2483 18.234 35.2466C18.4208 35.2449 18.6053 35.206 18.7768 35.1322C18.9483 35.0584 19.1035 34.9512 19.2331 34.8169L24.125 29.9269V39.6562C24.125 40.0292 24.2732 40.3869 24.5369 40.6506C24.8006 40.9143 25.1583 41.0625 25.5312 41.0625C25.9042 41.0625 26.2619 40.9143 26.5256 40.6506C26.7893 40.3869 26.9375 40.0292 26.9375 39.6562V29.925L31.8294 34.8188C31.9592 34.953 32.1144 35.0601 32.286 35.1337C32.4576 35.2073 32.6421 35.246 32.8289 35.2475C33.0156 35.2491 33.2007 35.2134 33.3735 35.1426C33.5463 35.0718 33.7033 34.9673 33.8352 34.8352C33.9672 34.7031 34.0716 34.5461 34.1422 34.3732C34.2128 34.2004 34.2483 34.0152 34.2466 33.8284C34.2449 33.6417 34.206 33.4572 34.1322 33.2857C34.0584 33.1142 33.9512 32.959 33.8169 32.8294L28.9269 27.9375H38.6562C39.0292 27.9375 39.3869 27.7893 39.6506 27.5256C39.9143 27.2619 40.0625 26.9042 40.0625 26.5312C40.0625 26.1583 39.9143 25.8006 39.6506 25.5369C39.3869 25.2732 39.0292 25.125 38.6562 25.125H28.925L33.8188 20.2331C34.0748 19.9678 34.2164 19.6125 34.213 19.2438C34.2096 18.8751 34.0616 18.5224 33.8007 18.2618C33.5398 18.0012 33.1871 17.8535 32.8183 17.8505C32.4496 17.8474 32.0945 17.9893 31.8294 18.2456L26.9375 23.1356V13.4062Z" fill="white"/>
</g>
<defs>
<linearGradient id="paint0_linear_155_4" x1="26" y1="0" x2="26" y2="52" gradientUnits="userSpaceOnUse">
<stop stop-color="#858585"/>
<stop offset="1" stop-color="#565658"/>
</linearGradient>
<clipPath id="clip0_155_4">
<rect width="30" height="30" fill="white" transform="translate(11 12)"/>
</clipPath>
</defs>
</svg>
