<svg width="23" height="23" viewBox="0 0 23 23" fill="none" xmlns="http://www.w3.org/2000/svg">
<g clip-path="url(#clip0_92_1656)">
<path fill-rule="evenodd" clip-rule="evenodd" d="M11.5 1.4375C8.83126 1.4375 6.27182 2.49765 4.38474 4.38474C2.49765 6.27182 1.4375 8.83126 1.4375 11.5C1.4375 14.1687 2.49765 16.7282 4.38474 18.6153C6.27182 20.5023 8.83126 21.5625 11.5 21.5625C14.1687 21.5625 16.7282 20.5023 18.6153 18.6153C20.5023 16.7282 21.5625 14.1687 21.5625 11.5C21.5625 8.83126 20.5023 6.27182 18.6153 4.38474C16.7282 2.49765 14.1687 1.4375 11.5 1.4375ZM11.5 23C8.45001 23 5.52494 21.7884 3.36827 19.6317C1.2116 17.4751 -6.36e-07 14.55 -5.02681e-07 11.5C-3.69362e-07 8.45001 1.2116 5.52494 3.36827 3.36827C5.52494 1.2116 8.45001 -6.36e-07 11.5 -5.02681e-07C14.55 -3.69362e-07 17.4751 1.2116 19.6317 3.36827C21.7884 5.52494 23 8.45001 23 11.5C23 14.55 21.7884 17.4751 19.6317 19.6317C17.4751 21.7884 14.55 23 11.5 23Z" fill="#565658"/>
<path d="M10.7812 12.3319L7.69637 9.24559C7.62955 9.17876 7.55021 9.12575 7.4629 9.08959C7.37559 9.05342 7.28201 9.03481 7.1875 9.03481C7.09299 9.03481 6.99941 9.05342 6.9121 9.08959C6.82478 9.12575 6.74545 9.17876 6.67862 9.24559C6.6118 9.31242 6.55879 9.39175 6.52262 9.47906C6.48646 9.56638 6.46784 9.65996 6.46784 9.75446C6.46784 9.84897 6.48646 9.94255 6.52262 10.0299C6.55879 10.1172 6.6118 10.1965 6.67862 10.2633L10.9911 14.5758C11.0579 14.6428 11.1372 14.6959 11.2245 14.7321C11.3118 14.7683 11.4055 14.787 11.5 14.787C11.5945 14.787 11.6882 14.7683 11.7755 14.7321C11.8628 14.6959 11.9421 14.6428 12.0089 14.5758L16.3214 10.2633C16.3882 10.1965 16.4412 10.1172 16.4774 10.0299C16.5135 9.94255 16.5322 9.84897 16.5322 9.75446C16.5322 9.65996 16.5135 9.56638 16.4774 9.47906C16.4412 9.39175 16.3882 9.31242 16.3214 9.24559C16.2545 9.17876 16.1752 9.12575 16.0879 9.08959C16.0006 9.05342 15.907 9.03481 15.8125 9.03481C15.718 9.03481 15.6244 9.05342 15.5371 9.08959C15.4498 9.12575 15.3705 9.17876 15.3036 9.24559L12.2187 12.3319L11.5 13.1429L10.7812 12.3319Z" fill="#565658"/>
<circle cx="11.5" cy="11.5" r="10.5" transform="rotate(90 11.5 11.5)" stroke="#565658" stroke-width="2"/>
<path d="M8.21422 9.85721L11.4999 13.9644L14.7856 9.85721" stroke="#565658" stroke-width="2" stroke-linecap="round" stroke-linejoin="round"/>
</g>
<defs>
<clipPath id="clip0_92_1656">
<rect width="23" height="23" fill="white" transform="translate(23) rotate(90)"/>
</clipPath>
</defs>
</svg>
