<svg width="59" height="59" viewBox="0 0 59 59" fill="none" xmlns="http://www.w3.org/2000/svg">
<g clip-path="url(#clip0_123_489)">
<path fill-rule="evenodd" clip-rule="evenodd" d="M55.3125 29.5C55.3125 22.6541 52.593 16.0886 47.7522 11.2478C42.9114 6.40702 36.3459 3.6875 29.5 3.6875C22.6541 3.6875 16.0886 6.40702 11.2478 11.2478C6.40702 16.0886 3.6875 22.6541 3.6875 29.5C3.6875 36.3459 6.40702 42.9114 11.2478 47.7522C16.0886 52.593 22.6541 55.3125 29.5 55.3125C36.3459 55.3125 42.9114 52.593 47.7522 47.7522C52.593 42.9114 55.3125 36.3459 55.3125 29.5ZM2.57897e-06 29.5C3.26296e-06 21.6761 3.10802 14.1727 8.64035 8.64034C14.1727 3.10802 21.6761 -3.26296e-06 29.5 -2.57897e-06C37.3239 -1.89499e-06 44.8273 3.10802 50.3597 8.64035C55.892 14.1727 59 21.6761 59 29.5C59 37.3239 55.892 44.8273 50.3596 50.3596C44.8273 55.892 37.3239 59 29.5 59C21.6761 59 14.1727 55.892 8.64035 50.3596C3.10802 44.8273 1.89499e-06 37.3239 2.57897e-06 29.5Z" fill="white"/>
<path d="M27.366 27.6562L35.2831 19.7429C35.4545 19.5714 35.5905 19.3679 35.6832 19.144C35.776 18.92 35.8238 18.6799 35.8238 18.4375C35.8238 18.1951 35.776 17.955 35.6832 17.731C35.5905 17.5071 35.4545 17.3035 35.2831 17.1321C35.1116 16.9607 34.9081 16.8247 34.6841 16.7319C34.4602 16.6392 34.2201 16.5914 33.9777 16.5914C33.7353 16.5914 33.4952 16.6392 33.2712 16.7319C33.0472 16.8247 32.8437 16.9607 32.6723 17.1321L21.6098 28.1946C21.4381 28.3659 21.3019 28.5694 21.2089 28.7933C21.116 29.0173 21.0681 29.2575 21.0681 29.5C21.0681 29.7425 21.116 29.9826 21.2089 30.2066C21.3019 30.4306 21.4381 30.6341 21.6098 30.8054L32.6723 41.8679C32.8437 42.0393 33.0472 42.1753 33.2712 42.2681C33.4952 42.3608 33.7352 42.4086 33.9777 42.4086C34.2201 42.4086 34.4602 42.3608 34.6841 42.2681C34.9081 42.1753 35.1116 42.0393 35.2831 41.8679C35.4545 41.6964 35.5905 41.4929 35.6832 41.269C35.776 41.045 35.8238 40.8049 35.8238 40.5625C35.8238 40.3201 35.776 40.08 35.6832 39.856C35.5905 39.6321 35.4545 39.4285 35.2831 39.2571L27.366 31.3437L25.2857 29.5L27.366 27.6562Z" fill="white"/>
<circle cx="29.5" cy="29.5" r="28.5" transform="rotate(-180 29.5 29.5)" stroke="white" stroke-width="2"/>
<path d="M33.7144 21.0713L23.1787 29.4999L33.7144 37.9285" stroke="white" stroke-width="2" stroke-linecap="round" stroke-linejoin="round"/>
</g>
<defs>
<clipPath id="clip0_123_489">
<rect width="59" height="59" fill="white" transform="translate(59 59) rotate(-180)"/>
</clipPath>
</defs>
</svg>
