<svg width="23" height="23" viewBox="0 0 23 23" fill="none" xmlns="http://www.w3.org/2000/svg">
<g clip-path="url(#clip0_123_626)">
<path fill-rule="evenodd" clip-rule="evenodd" d="M1.4375 11.5C1.4375 14.1687 2.49765 16.7282 4.38474 18.6153C6.27182 20.5023 8.83126 21.5625 11.5 21.5625C14.1687 21.5625 16.7282 20.5023 18.6153 18.6153C20.5023 16.7282 21.5625 14.1687 21.5625 11.5C21.5625 8.83126 20.5023 6.27182 18.6153 4.38474C16.7282 2.49765 14.1687 1.4375 11.5 1.4375C8.83126 1.4375 6.27182 2.49765 4.38474 4.38474C2.49765 6.27182 1.4375 8.83126 1.4375 11.5ZM23 11.5C23 14.55 21.7884 17.4751 19.6317 19.6317C17.4751 21.7884 14.55 23 11.5 23C8.45001 23 5.52494 21.7884 3.36827 19.6317C1.2116 17.4751 0 14.55 0 11.5C0 8.45001 1.2116 5.52494 3.36827 3.36827C5.52494 1.2116 8.45001 0 11.5 0C14.55 0 17.4751 1.2116 19.6317 3.36827C21.7884 5.52494 23 8.45001 23 11.5Z" fill="#FE6D4D"/>
<path d="M12.3319 12.2187L9.24559 15.3036C9.17876 15.3705 9.12575 15.4498 9.08959 15.5371C9.05342 15.6244 9.03481 15.718 9.03481 15.8125C9.03481 15.907 9.05342 16.0006 9.08959 16.0879C9.12575 16.1752 9.17876 16.2545 9.24559 16.3214C9.31242 16.3882 9.39175 16.4412 9.47906 16.4774C9.56638 16.5135 9.65996 16.5322 9.75446 16.5322C9.84897 16.5322 9.94255 16.5135 10.0299 16.4774C10.1172 16.4412 10.1965 16.3882 10.2633 16.3214L14.5758 12.0089C14.6428 11.9421 14.6959 11.8628 14.7321 11.7755C14.7683 11.6882 14.787 11.5945 14.787 11.5C14.787 11.4055 14.7683 11.3118 14.7321 11.2245C14.6959 11.1372 14.6428 11.0579 14.5758 10.9911L10.2633 6.67863C10.1965 6.6118 10.1172 6.55879 10.0299 6.52262C9.94255 6.48646 9.84897 6.46784 9.75446 6.46784C9.65996 6.46784 9.56638 6.48646 9.47906 6.52262C9.39175 6.55879 9.31242 6.6118 9.24559 6.67863C9.17876 6.74545 9.12575 6.82479 9.08959 6.9121C9.05342 6.99941 9.03481 7.09299 9.03481 7.1875C9.03481 7.28201 9.05342 7.37559 9.08959 7.4629C9.12575 7.55022 9.17876 7.62955 9.24559 7.69638L12.3319 10.7812L13.1429 11.5L12.3319 12.2187Z" fill="#FE6D4D"/>
<circle cx="11.5" cy="11.5" r="10.5" fill="white" stroke="white" stroke-width="2"/>
<path d="M9.85715 14.7858L13.9643 11.5001L9.85715 8.21436" stroke="#FE6D4D" stroke-width="2" stroke-linecap="round" stroke-linejoin="round"/>
</g>
<defs>
<clipPath id="clip0_123_626">
<rect width="23" height="23" fill="white"/>
</clipPath>
</defs>
</svg>
