<svg width="59" height="59" viewBox="0 0 59 59" fill="none" xmlns="http://www.w3.org/2000/svg">
<g clip-path="url(#clip0_406_15)">
<path fill-rule="evenodd" clip-rule="evenodd" d="M55.3125 29.5C55.3125 22.6541 52.593 16.0886 47.7522 11.2478C42.9114 6.40702 36.3459 3.6875 29.5 3.6875C22.6541 3.6875 16.0886 6.40702 11.2478 11.2478C6.40702 16.0886 3.6875 22.6541 3.6875 29.5C3.6875 36.3459 6.40702 42.9114 11.2478 47.7522C16.0886 52.593 22.6541 55.3125 29.5 55.3125C36.3459 55.3125 42.9114 52.593 47.7522 47.7522C52.593 42.9114 55.3125 36.3459 55.3125 29.5ZM2.57897e-06 29.5C3.26296e-06 21.6761 3.10802 14.1727 8.64035 8.64034C14.1727 3.10802 21.6761 -3.26296e-06 29.5 -2.57897e-06C37.3239 -1.89499e-06 44.8273 3.10802 50.3597 8.64035C55.892 14.1727 59 21.6761 59 29.5C59 37.3239 55.892 44.8273 50.3596 50.3596C44.8273 55.892 37.3239 59 29.5 59C21.6761 59 14.1727 55.892 8.64035 50.3596C3.10802 44.8273 1.89499e-06 37.3239 2.57897e-06 29.5Z" fill="white"/>
<path d="M27.366 27.6562L35.2831 19.7429C35.4545 19.5714 35.5905 19.3679 35.6832 19.144C35.776 18.92 35.8238 18.6799 35.8238 18.4375C35.8238 18.1951 35.776 17.955 35.6832 17.731C35.5905 17.5071 35.4545 17.3035 35.2831 17.1321C35.1116 16.9607 34.9081 16.8247 34.6841 16.7319C34.4602 16.6392 34.2201 16.5914 33.9777 16.5914C33.7353 16.5914 33.4952 16.6392 33.2712 16.7319C33.0472 16.8247 32.8437 16.9607 32.6723 17.1321L21.6098 28.1946C21.4381 28.3659 21.3019 28.5694 21.2089 28.7933C21.116 29.0173 21.0681 29.2575 21.0681 29.5C21.0681 29.7425 21.116 29.9826 21.2089 30.2066C21.3019 30.4306 21.4381 30.6341 21.6098 30.8054L32.6723 41.8679C32.8437 42.0393 33.0472 42.1753 33.2712 42.2681C33.4952 42.3608 33.7352 42.4086 33.9777 42.4086C34.2201 42.4086 34.4602 42.3608 34.6841 42.2681C34.9081 42.1753 35.1116 42.0393 35.2831 41.8679C35.4545 41.6964 35.5905 41.4929 35.6832 41.269C35.776 41.045 35.8238 40.8049 35.8238 40.5625C35.8238 40.3201 35.776 40.08 35.6832 39.856C35.5905 39.6321 35.4545 39.4285 35.2831 39.2571L27.366 31.3437L25.2857 29.5L27.366 27.6562Z" fill="white"/>
<circle cx="29.5" cy="29.5" r="28.5" transform="rotate(-180 29.5 29.5)" fill="white" stroke="white" stroke-width="2"/>
<path d="M27.5422 27.2477L35.4593 19.3343C35.6307 19.1629 35.7667 18.9594 35.8595 18.7354C35.9523 18.5114 36 18.2713 36 18.0289C36 17.7865 35.9523 17.5464 35.8595 17.3225C35.7667 17.0985 35.6307 16.895 35.4593 16.7235C35.2879 16.5521 35.0844 16.4161 34.8604 16.3234C34.6364 16.2306 34.3964 16.1828 34.1539 16.1828C33.9115 16.1828 33.6714 16.2306 33.4475 16.3234C33.2235 16.4161 33.02 16.5521 32.8485 16.7235L21.786 27.786C21.6143 27.9573 21.4781 28.1608 21.3852 28.3848C21.2922 28.6088 21.2444 28.8489 21.2444 29.0914C21.2444 29.3339 21.2922 29.5741 21.3852 29.7981C21.4781 30.0221 21.6143 30.2255 21.786 30.3968L32.8485 41.4593C33.02 41.6307 33.2235 41.7667 33.4475 41.8595C33.6714 41.9523 33.9115 42 34.1539 42C34.3964 42 34.6364 41.9523 34.8604 41.8595C35.0844 41.7667 35.2879 41.6307 35.4593 41.4593C35.6307 41.2879 35.7667 41.0844 35.8595 40.8604C35.9523 40.6364 36 40.3964 36 40.1539C36 39.9115 35.9523 39.6714 35.8595 39.4475C35.7667 39.2235 35.6307 39.02 35.4593 38.8485L27.5422 30.9352L25.462 29.0914L27.5422 27.2477Z" fill="#FE6D4D"/>
</g>
<defs>
<clipPath id="clip0_406_15">
<rect width="59" height="59" fill="white" transform="translate(59 59) rotate(-180)"/>
</clipPath>
</defs>
</svg>
