<svg width="62" height="62" viewBox="0 0 62 62" fill="none" xmlns="http://www.w3.org/2000/svg">
<g clip-path="url(#clip0_123_549)">
<path fill-rule="evenodd" clip-rule="evenodd" d="M31 3.875C23.806 3.875 16.9067 6.7328 11.8197 11.8197C6.73281 16.9067 3.875 23.806 3.875 31C3.875 38.194 6.73281 45.0933 11.8197 50.1803C16.9067 55.2672 23.806 58.125 31 58.125C38.194 58.125 45.0933 55.2672 50.1803 50.1803C55.2672 45.0933 58.125 38.194 58.125 31C58.125 23.806 55.2672 16.9067 50.1803 11.8197C45.0933 6.7328 38.194 3.875 31 3.875ZM31 62C22.7783 62 14.8933 58.7339 9.07969 52.9203C3.26606 47.1067 2.10026e-06 39.2217 2.45964e-06 31C2.81903e-06 22.7783 3.26606 14.8933 9.07969 9.07969C14.8933 3.26606 22.7783 -1.71444e-06 31 -1.35505e-06C39.2217 -9.95671e-07 47.1067 3.26606 52.9203 9.07969C58.7339 14.8933 62 22.7783 62 31C62 39.2217 58.7339 47.1067 52.9203 52.9203C47.1067 58.7339 39.2217 62 31 62ZM32.9375 17.4375C32.9375 16.9236 32.7334 16.4308 32.37 16.0675C32.0067 15.7041 31.5139 15.5 31 15.5C30.4861 15.5 29.9933 15.7041 29.63 16.0675C29.2666 16.4308 29.0625 16.9236 29.0625 17.4375L29.0625 39.8854L20.7468 31.5658C20.5666 31.3856 20.3528 31.2427 20.1174 31.1452C19.882 31.0477 19.6298 30.9976 19.375 30.9976C19.1202 30.9976 18.868 31.0477 18.6326 31.1452C18.3972 31.2427 18.1834 31.3856 18.0033 31.5658C17.8231 31.7459 17.6802 31.9597 17.5827 32.1951C17.4852 32.4305 17.4351 32.6827 17.4351 32.9375C17.4351 33.1923 17.4852 33.4445 17.5827 33.6799C17.6802 33.9153 17.8231 34.1291 18.0033 34.3093L29.6282 45.9343C29.8082 46.1147 30.022 46.2578 30.2574 46.3555C30.4928 46.4532 30.7452 46.5035 31 46.5035C31.2548 46.5035 31.5072 46.4532 31.7426 46.3555C31.978 46.2578 32.1918 46.1147 32.3717 45.9343L43.9968 34.3093C44.1769 34.1291 44.3198 33.9153 44.4173 33.6799C44.5148 33.4445 44.5649 33.1923 44.5649 32.9375C44.5649 32.6827 44.5148 32.4305 44.4173 32.1951C44.3198 31.9597 44.1769 31.7459 43.9968 31.5658C43.8166 31.3856 43.6028 31.2427 43.3674 31.1452C43.132 31.0477 42.8798 30.9976 42.625 30.9976C42.3702 30.9976 42.118 31.0477 41.8826 31.1452C41.6472 31.2427 41.4334 31.3856 41.2532 31.5658L32.9375 39.8854L32.9375 17.4375Z" fill="white"/>
</g>
<defs>
<clipPath id="clip0_123_549">
<rect width="62" height="62" fill="white" transform="translate(62) rotate(90)"/>
</clipPath>
</defs>
</svg>
