<svg width="59" height="59" viewBox="0 0 59 59" fill="none" xmlns="http://www.w3.org/2000/svg">
<g clip-path="url(#clip0_406_3)">
<path fill-rule="evenodd" clip-rule="evenodd" d="M3.6875 29.5C3.6875 36.3459 6.40702 42.9114 11.2478 47.7522C16.0886 52.593 22.6541 55.3125 29.5 55.3125C36.3459 55.3125 42.9114 52.593 47.7522 47.7522C52.593 42.9114 55.3125 36.3459 55.3125 29.5C55.3125 22.6541 52.593 16.0886 47.7522 11.2478C42.9114 6.40702 36.3459 3.6875 29.5 3.6875C22.6541 3.6875 16.0886 6.40702 11.2478 11.2478C6.40702 16.0886 3.6875 22.6541 3.6875 29.5ZM59 29.5C59 37.3239 55.892 44.8273 50.3597 50.3597C44.8273 55.892 37.3239 59 29.5 59C21.6761 59 14.1727 55.892 8.64035 50.3597C3.10803 44.8273 0 37.3239 0 29.5C0 21.6761 3.10803 14.1727 8.64035 8.64035C14.1727 3.10803 21.6761 0 29.5 0C37.3239 0 44.8273 3.10803 50.3597 8.64035C55.892 14.1727 59 21.6761 59 29.5Z" fill="white"/>
<path d="M31.634 31.3438L23.7169 39.2571C23.5455 39.4286 23.4095 39.6321 23.3168 39.856C23.224 40.08 23.1762 40.3201 23.1762 40.5625C23.1762 40.8049 23.224 41.045 23.3168 41.269C23.4095 41.4929 23.5455 41.6964 23.7169 41.8679C23.8884 42.0393 24.0919 42.1753 24.3159 42.2681C24.5398 42.3608 24.7799 42.4086 25.0223 42.4086C25.2648 42.4086 25.5048 42.3608 25.7288 42.2681C25.9528 42.1753 26.1563 42.0393 26.3277 41.8679L37.3902 30.8054C37.5619 30.6341 37.6981 30.4306 37.7911 30.2066C37.884 29.9826 37.9319 29.7425 37.9319 29.5C37.9319 29.2575 37.884 29.0173 37.7911 28.7934C37.6981 28.5694 37.5619 28.3659 37.3902 28.1946L26.3277 17.1321C26.1563 16.9607 25.9528 16.8247 25.7288 16.7319C25.5048 16.6392 25.2648 16.5914 25.0223 16.5914C24.7799 16.5914 24.5398 16.6392 24.3159 16.7319C24.0919 16.8247 23.8884 16.9607 23.7169 17.1321C23.5455 17.3035 23.4095 17.5071 23.3168 17.731C23.224 17.955 23.1762 18.1951 23.1762 18.4375C23.1762 18.6799 23.224 18.92 23.3168 19.144C23.4095 19.3679 23.5455 19.5715 23.7169 19.7429L31.634 27.6562L33.7143 29.5L31.634 31.3438Z" fill="white"/>
<circle cx="29.5" cy="29.5" r="28.5" fill="white" stroke="white" stroke-width="2"/>
<path d="M31.4578 31.7523L23.5407 39.6657C23.3693 39.8371 23.2333 40.0406 23.1405 40.2646C23.0477 40.4886 23 40.7287 23 40.9711C23 41.2135 23.0477 41.4536 23.1405 41.6775C23.2333 41.9015 23.3693 42.105 23.5407 42.2765C23.7121 42.4479 23.9156 42.5839 24.1396 42.6766C24.3636 42.7694 24.6036 42.8172 24.8461 42.8172C25.0885 42.8172 25.3286 42.7694 25.5525 42.6766C25.7765 42.5839 25.98 42.4479 26.1515 42.2765L37.214 31.214C37.3857 31.0427 37.5219 30.8392 37.6148 30.6152C37.7078 30.3912 37.7556 30.1511 37.7556 29.9086C37.7556 29.6661 37.7078 29.4259 37.6148 29.2019C37.5219 28.9779 37.3857 28.7745 37.214 28.6032L26.1515 17.5407C25.98 17.3693 25.7765 17.2333 25.5525 17.1405C25.3286 17.0477 25.0885 17 24.8461 17C24.6036 17 24.3636 17.0477 24.1396 17.1405C23.9156 17.2333 23.7121 17.3693 23.5407 17.5407C23.3693 17.7121 23.2333 17.9156 23.1405 18.1396C23.0477 18.3636 23 18.6036 23 18.8461C23 19.0885 23.0477 19.3286 23.1405 19.5525C23.2333 19.7765 23.3693 19.98 23.5407 20.1515L31.4578 28.0648L33.538 29.9086L31.4578 31.7523Z" fill="#FE6D4D"/>
</g>
<defs>
<clipPath id="clip0_406_3">
<rect width="59" height="59" fill="white"/>
</clipPath>
</defs>
</svg>
