<svg width="106" height="106" viewBox="0 0 106 106" fill="none" xmlns="http://www.w3.org/2000/svg">
<path d="M0 106C3.75961 82.4138 30.8396 70.8391 43.0235 68H63.6C93.2591 77.4345 105.652 97.2644 106 106H0Z" fill="#FE6D4D"/>
<path d="M44.681 63.469V53.8708H64.749V63.469C64.2311 67.8568 68.8488 68.9537 71.2225 68.9537C56.7218 91.9894 43.1706 78.5519 38.2075 68.9537C43.3863 68.4053 44.681 65.0687 44.681 63.469Z" fill="#EAAC9D"/>
<ellipse cx="55.584" cy="29.5441" rx="26.0644" ry="29.5397" fill="#FFCBBE"/>
<path d="M36.8262 5.34103C24.9775 13.115 24.3386 29.5101 25.5002 36.7359H31.8477V32.0018C31.8477 25.9221 34.4584 24.9005 39.3154 24.9005C48.3762 22.8076 53.5455 18.796 54.9975 17.0518C58.8807 21.3375 67.734 24.07 71.6753 24.9005C74.1645 25.0999 75.5336 26.0633 75.907 26.5201C78.1971 27.2178 79.4334 34.3688 79.7653 37.8571H84.8682V27.5168C84.5695 14.8592 75.9485 6.6284 71.6753 4.09521C56.043 -3.87809 41.9291 1.60355 36.8262 5.34103Z" fill="#966857"/>
<path d="M85.2656 37.7181C85.7586 30.4849 80.7939 31.4483 78.4929 31.4818L78.4929 41.842C83.7027 41.6006 85.1788 38.9921 85.2656 37.7181Z" fill="#FFCBBE"/>
<path d="M25.1284 37.7181C24.6354 30.4849 29.6001 31.4483 31.9011 31.4818L31.9011 41.842C26.6913 41.6006 25.2152 38.9921 25.1284 37.7181Z" fill="#FFCBBE"/>
<path d="M61.3572 82.9849L57.88 91.2556H50.2525L46.2144 82.9849L54.1784 79.6992L61.3572 82.9849Z" fill="#6B6B6D"/>
<path d="M61.7557 106L57.7707 90.4587H50.5099L46.6128 106H61.7557Z" fill="#6B6B6D"/>
<path d="M65.342 66.1506L54.1841 79.645L59.4773 82.7233C62.7415 85.1859 64.4397 83.7494 64.8808 82.7233L72.5149 69.7369C71.9172 68.5413 67.0329 66.004 65.342 66.1506Z" fill="#E3E3E6"/>
<path d="M44.0224 65.9512L54.1841 79.6994L48.7705 83.0876C45.4322 85.6118 43.6954 84.1393 43.2442 83.0876L36.0525 69.9363C37.8457 68.5415 42.2931 65.801 44.0224 65.9512Z" fill="#E3E3E6"/>
</svg>
