<svg width="52" height="52" viewBox="0 0 52 52" fill="none" xmlns="http://www.w3.org/2000/svg">
<circle cx="26" cy="26" r="26" fill="url(#paint0_linear_273_4)"/>
<path d="M38 14H14C12.35 14 11.015 15.35 11.015 17L11 35C11 36.65 12.35 38 14 38H38C39.65 38 41 36.65 41 35V17C41 15.35 39.65 14 38 14ZM37.4 20.375L26.795 27.005C26.315 27.305 25.685 27.305 25.205 27.005L14.6 20.375C14.4496 20.2906 14.3179 20.1765 14.2128 20.0397C14.1078 19.9029 14.0316 19.7462 13.9889 19.5791C13.9461 19.4119 13.9378 19.2379 13.9642 19.0675C13.9907 18.897 14.0515 18.7337 14.1429 18.5875C14.2343 18.4412 14.3545 18.315 14.4961 18.2165C14.6377 18.118 14.7978 18.0493 14.9667 18.0144C15.1357 17.9796 15.3099 17.9795 15.4789 18.0139C15.6479 18.0484 15.8082 18.1168 15.95 18.215L26 24.5L36.05 18.215C36.1918 18.1168 36.3521 18.0484 36.5211 18.0139C36.6901 17.9795 36.8643 17.9796 37.0333 18.0144C37.2022 18.0493 37.3623 18.118 37.5039 18.2165C37.6455 18.315 37.7657 18.4412 37.8571 18.5875C37.9485 18.7337 38.0093 18.897 38.0358 19.0675C38.0622 19.2379 38.0539 19.4119 38.0111 19.5791C37.9684 19.7462 37.8922 19.9029 37.7872 20.0397C37.6821 20.1765 37.5504 20.2906 37.4 20.375Z" fill="white"/>
<defs>
<linearGradient id="paint0_linear_273_4" x1="26" y1="0" x2="26" y2="52" gradientUnits="userSpaceOnUse">
<stop stop-color="#FE6D4D"/>
<stop offset="1" stop-color="#FE4920"/>
</linearGradient>
</defs>
</svg>
