<svg width="52" height="52" viewBox="0 0 52 52" fill="none" xmlns="http://www.w3.org/2000/svg">
<circle cx="26" cy="26" r="26" fill="url(#paint0_linear_273_5)"/>
<path d="M12.8656 16.093L16.6098 12.3523C16.8739 12.0871 17.1878 11.8766 17.5335 11.733C17.8792 11.5894 18.2499 11.5155 18.6242 11.5156C19.3871 11.5156 20.1043 11.8145 20.6422 12.3523L24.6711 16.3812C24.9364 16.6454 25.1468 16.9593 25.2904 17.305C25.434 17.6507 25.5079 18.0214 25.5078 18.3957C25.5078 19.1586 25.209 19.8758 24.6711 20.4137L21.725 23.3598C22.4146 24.8798 23.3734 26.2626 24.5551 27.4414C25.7338 28.626 27.1165 29.5882 28.6367 30.282L31.5828 27.3359C31.8469 27.0707 32.1609 26.8602 32.5066 26.7166C32.8523 26.573 33.2229 26.4991 33.5973 26.4992C34.3602 26.4992 35.0773 26.798 35.6152 27.3359L39.6477 31.3613C39.9133 31.6259 40.1239 31.9404 40.2675 32.2868C40.4111 32.6331 40.4848 33.0044 40.4844 33.3793C40.4844 34.1422 40.1855 34.8594 39.6477 35.3973L35.9105 39.1344C35.0527 39.9957 33.868 40.4844 32.6516 40.4844C32.3949 40.4844 32.1488 40.4633 31.9062 40.4211C27.1672 39.6406 22.4668 37.1199 18.6734 33.3301C14.8836 29.5438 12.3664 24.8469 11.5754 20.0938C11.3363 18.6418 11.818 17.1477 12.8656 16.093Z" fill="white"/>
<defs>
<linearGradient id="paint0_linear_273_5" x1="26" y1="0" x2="26" y2="52" gradientUnits="userSpaceOnUse">
<stop stop-color="#FE6D4D"/>
<stop offset="1" stop-color="#FE4920"/>
</linearGradient>
</defs>
</svg>
