<svg width="46" height="46" viewBox="0 0 46 46" fill="none" xmlns="http://www.w3.org/2000/svg">
<circle cx="23" cy="23" r="23" fill="url(#paint0_linear_205_4)"/>
<path d="M22.5 9.8125C19.8571 9.81562 17.3233 10.8669 15.4545 12.7357C13.5857 14.6046 12.5344 17.1383 12.5313 19.7812C12.5281 21.941 13.2336 24.0422 14.5395 25.7625C14.5395 25.7625 14.8114 26.1205 14.8558 26.1721L22.5 35.1875L30.1479 26.1676C30.1877 26.1196 30.4605 25.7625 30.4605 25.7625L30.4614 25.7598C31.7667 24.0403 32.4719 21.9401 32.4688 19.7812C32.4656 17.1383 31.4144 14.6046 29.5455 12.7357C27.6767 10.8669 25.1429 9.81562 22.5 9.8125ZM22.5 23.4062C21.7831 23.4062 21.0822 23.1936 20.4861 22.7953C19.8899 22.397 19.4253 21.8309 19.1509 21.1685C18.8766 20.5061 18.8048 19.7772 18.9447 19.074C19.0845 18.3709 19.4298 17.725 19.9367 17.218C20.4437 16.711 21.0896 16.3658 21.7928 16.2259C22.496 16.086 23.2249 16.1578 23.8872 16.4322C24.5496 16.7066 25.1158 17.1712 25.5141 17.7673C25.9124 18.3634 26.125 19.0643 26.125 19.7812C26.1238 20.7423 25.7415 21.6636 25.0619 22.3432C24.3824 23.0227 23.4611 23.4051 22.5 23.4062Z" fill="white"/>
<defs>
<linearGradient id="paint0_linear_205_4" x1="23" y1="0" x2="23" y2="46" gradientUnits="userSpaceOnUse">
<stop stop-color="#FE6D4D"/>
<stop offset="1" stop-color="#FE4920"/>
</linearGradient>
</defs>
</svg>
