<svg width="46" height="46" viewBox="0 0 46 46" fill="none" xmlns="http://www.w3.org/2000/svg">
<circle cx="23" cy="23" r="23" fill="url(#paint0_linear_205_2)"/>
<path d="M12.042 30.4204L22.082 36.2169C22.3672 36.381 22.6905 36.4674 23.0195 36.4674C23.3486 36.4674 23.6718 36.381 23.957 36.2169L33.9972 30.4203C34.2819 30.2553 34.5183 30.0185 34.6828 29.7336C34.8473 29.4487 34.9341 29.1255 34.9347 28.7965V17.2033C34.9341 16.8743 34.8473 16.5512 34.6828 16.2662C34.5183 15.9813 34.2819 15.7445 33.9972 15.5795L23.9571 9.7829C23.6719 9.61882 23.3486 9.53247 23.0196 9.53247C22.6906 9.53247 22.3673 9.61882 22.0821 9.7829L12.042 15.5795C11.7573 15.7445 11.5209 15.9813 11.3564 16.2662C11.1919 16.5512 11.105 16.8743 11.1045 17.2033V28.7966C11.105 29.1256 11.1919 29.4487 11.3564 29.7337C11.5209 30.0186 11.7573 30.2554 12.042 30.4204ZM23.957 11.948L33.0596 17.2033V27.5966L23.957 22.4516V11.948ZM23.0165 24.0738L32.2248 29.2786L23.0198 34.593L13.8113 29.2768L23.0165 24.0738ZM12.9795 17.2033L22.082 11.948V22.448L12.9795 27.5931V17.2033Z" fill="white"/>
<path d="M23 23L12.5 28.5V17L23 11V23Z" fill="white"/>
<defs>
<linearGradient id="paint0_linear_205_2" x1="23" y1="0" x2="23" y2="46" gradientUnits="userSpaceOnUse">
<stop stop-color="#FE6D4D"/>
<stop offset="1" stop-color="#FE4920"/>
</linearGradient>
</defs>
</svg>
