<svg width="46" height="46" viewBox="0 0 46 46" fill="none" xmlns="http://www.w3.org/2000/svg">
<circle cx="23" cy="23" r="23" fill="url(#paint0_linear_205_3)"/>
<path d="M37.2767 13.9032L28.5267 9.52819C28.3241 9.42681 28.1007 9.37402 27.8741 9.37402C27.6476 9.37402 27.4241 9.42681 27.2215 9.52819L19.1248 13.578L11.0267 9.52819C10.8043 9.41706 10.5572 9.36463 10.3089 9.37588C10.0605 9.38713 9.81914 9.46168 9.60771 9.59246C9.39627 9.72324 9.22178 9.90589 9.10081 10.1231C8.97983 10.3403 8.91639 10.5848 8.9165 10.8334V29.7917C8.9165 30.3444 9.22859 30.849 9.72296 31.0969L18.473 35.4719C18.6756 35.5733 18.899 35.6261 19.1256 35.6261C19.3521 35.6261 19.5756 35.5733 19.7782 35.4719L27.8748 31.4222L35.973 35.4705C36.1947 35.5827 36.4416 35.6358 36.6899 35.6248C36.9382 35.6139 37.1795 35.5391 37.3905 35.4078C37.8207 35.1409 38.0832 34.6728 38.0832 34.1667V15.2084C38.0832 14.6557 37.7711 14.1511 37.2767 13.9032ZM20.5832 16.1097L26.4165 13.193V28.8905L20.5832 31.8072V16.1097ZM11.8332 13.193L17.6665 16.1097V31.8072L11.8332 28.8905V13.193ZM35.1665 31.8072L29.3332 28.8905V13.193L35.1665 16.1097V31.8072Z" fill="white"/>
<path d="M36.5 15L29 12V30L36.5 33.5V15Z" fill="white"/>
<path d="M11 12L19 15.5V33.5L11 29.5V12Z" fill="white"/>
<defs>
<linearGradient id="paint0_linear_205_3" x1="23" y1="0" x2="23" y2="46" gradientUnits="userSpaceOnUse">
<stop stop-color="#FE6D4D"/>
<stop offset="1" stop-color="#FE4920"/>
</linearGradient>
</defs>
</svg>
