<svg width="49" height="49" viewBox="0 0 49 49" fill="none" xmlns="http://www.w3.org/2000/svg">
<circle cx="24.5" cy="24.5" r="24.5" fill="white"/>
<path fill-rule="evenodd" clip-rule="evenodd" d="M12.875 17C11.8473 17 10.8617 17.3647 10.135 18.0139C9.40826 18.663 9 19.5435 9 20.4615V28.5385C9 29.4565 9.40826 30.337 10.135 30.9861C10.8617 31.6353 11.8473 32 12.875 32H36.125C37.1527 32 38.1383 31.6353 38.865 30.9861C39.5917 30.337 40 29.4565 40 28.5385V20.4615C40 19.5435 39.5917 18.663 38.865 18.0139C38.1383 17.3647 37.1527 17 36.125 17H12.875ZM20.625 19.3077H18.0417V25.0769C18.0417 25.3829 17.9056 25.6764 17.6633 25.8928C17.4211 26.1092 17.0926 26.2308 16.75 26.2308C16.4074 26.2308 16.0789 26.1092 15.8367 25.8928C15.5944 25.6764 15.4583 25.3829 15.4583 25.0769V19.3077H12.875C12.5324 19.3077 12.2039 19.4293 11.9617 19.6456C11.7194 19.862 11.5833 20.1555 11.5833 20.4615V28.5385C11.5833 28.8445 11.7194 29.138 11.9617 29.3544C12.2039 29.5707 12.5324 29.6923 12.875 29.6923H36.125C36.4676 29.6923 36.7961 29.5707 37.0383 29.3544C37.2806 29.138 37.4167 28.8445 37.4167 28.5385V20.4615C37.4167 20.1555 37.2806 19.862 37.0383 19.6456C36.7961 19.4293 36.4676 19.3077 36.125 19.3077H33.5417V22.7692C33.5417 23.0752 33.4056 23.3687 33.1633 23.5851C32.9211 23.8015 32.5926 23.9231 32.25 23.9231C31.9074 23.9231 31.5789 23.8015 31.3367 23.5851C31.0944 23.3687 30.9583 23.0752 30.9583 22.7692V19.3077H28.375V25.0769C28.375 25.3829 28.2389 25.6764 27.9967 25.8928C27.7544 26.1092 27.4259 26.2308 27.0833 26.2308C26.7408 26.2308 26.4122 26.1092 26.17 25.8928C25.9278 25.6764 25.7917 25.3829 25.7917 25.0769V19.3077H23.2083V22.7692C23.2083 23.0752 23.0722 23.3687 22.83 23.5851C22.5878 23.8015 22.2592 23.9231 21.9167 23.9231C21.5741 23.9231 21.2456 23.8015 21.0033 23.5851C20.7611 23.3687 20.625 23.0752 20.625 22.7692V19.3077Z" fill="#FE6D4D"/>
</svg>
