<svg width="200" height="470" viewBox="0 0 200 470" fill="none" xmlns="http://www.w3.org/2000/svg">
<rect y="2.24109" width="200" height="466.667" fill="white"/>
<path fill-rule="evenodd" clip-rule="evenodd" d="M35.0661 347.307C39.6591 346.601 45.8277 344.711 53.8524 341.183C86.5279 326.816 110.325 310.014 127.846 296.945C129.85 295.451 131.799 293.984 133.687 292.562C139.905 287.882 145.467 283.696 150.174 280.642C153.282 278.626 156.411 276.837 159.464 275.655C162.471 274.491 166.145 273.621 170.021 274.371C178.822 276.076 182.322 284.307 184.033 291.318C185.903 298.98 186.818 309.936 187.297 324.393C187.93 343.522 187.818 370.098 187.667 405.759C187.588 424.293 187.499 445.28 187.499 468.951L170.833 468.864C170.833 444.843 170.923 423.689 171.002 405.102C171.152 369.74 171.263 343.675 170.64 324.857C170.162 310.425 169.263 301.009 167.843 295.189C167.274 292.856 166.745 291.578 166.392 290.914C166.169 290.979 165.891 291.071 165.552 291.202C164.05 291.783 162.022 292.87 159.295 294.639C155.117 297.349 150.219 301.035 144.146 305.605C142.178 307.086 140.086 308.66 137.855 310.324C119.946 323.682 94.9857 341.339 60.6271 356.446C51.8932 360.286 44.2516 362.771 37.6843 363.781C31.2022 364.778 24.8934 364.47 19.5882 361.658C13.9311 358.659 10.7878 353.559 9.48392 347.923C8.24341 342.562 8.58108 336.506 9.70717 330.363C11.9667 318.036 17.9232 302.712 25.8904 286.052C33.922 269.256 44.2597 250.57 55.6555 231.376C78.4495 192.986 105.726 152.152 127.856 119.692C133.393 111.571 138.613 103.966 143.362 97.0522L144.972 94.7077C149.084 88.723 152.807 83.3028 156.05 78.5484C159.715 73.1738 162.733 68.6986 164.979 65.2565C167.35 61.6232 168.542 59.6186 168.873 58.9165C173.119 49.9141 174.796 37.9469 175.271 26.7136C175.61 18.7057 175.348 12.237 175.156 7.48287C175.071 5.38076 175 3.61388 175 2.1974L191.666 2.28502C191.666 2.86102 191.709 3.94921 191.768 5.43077C191.953 10.1118 192.294 18.7197 191.923 27.5051C191.42 39.3864 189.637 54.0429 183.953 66.0925C183.043 68.0218 181.169 71.0172 178.95 74.4169C176.607 78.008 173.51 82.5992 169.834 87.9892C166.573 92.7707 162.83 98.2191 158.719 104.203L157.115 106.538C152.367 113.45 147.161 121.035 141.642 129.13C119.548 161.537 92.5141 202.018 69.9976 239.941C58.7383 258.905 48.6708 277.125 40.9328 293.307C33.1306 309.622 27.9534 323.344 26.1007 333.451C25.1707 338.525 25.2077 342.033 25.7201 344.247C26.1691 346.188 26.8323 346.675 27.3335 346.941C28.1867 347.393 30.3881 348.027 35.0661 347.307ZM165.953 290.273C165.955 290.267 165.991 290.295 166.056 290.377C165.983 290.32 165.951 290.28 165.953 290.273Z" fill="#FE6D4D"/>
</svg>
