<svg width="113" height="113" viewBox="0 0 113 113" fill="none" xmlns="http://www.w3.org/2000/svg">
<path d="M56.5 0.9375C25.8166 0.9375 0.9375 25.8166 0.9375 56.5C0.9375 87.1834 25.8166 112.062 56.5 112.062C87.1834 112.062 112.062 87.1834 112.062 56.5C112.062 25.8166 87.1834 0.9375 56.5 0.9375ZM74.3718 57.3558L47.2851 77.0631C47.1366 77.1698 46.9615 77.2335 46.7792 77.2472C46.5968 77.2609 46.4142 77.2241 46.2514 77.1408C46.0887 77.0575 45.952 76.9309 45.8565 76.775C45.761 76.619 45.7103 76.4398 45.71 76.2569V36.8671C45.7094 36.6839 45.7595 36.504 45.8548 36.3476C45.9502 36.1911 46.087 36.0641 46.2501 35.9806C46.4132 35.8971 46.5962 35.8604 46.7789 35.8746C46.9616 35.8888 47.1368 35.9533 47.2851 36.0609L74.3718 55.7559C74.4997 55.8464 74.6041 55.9662 74.6762 56.1054C74.7482 56.2446 74.7858 56.3991 74.7858 56.5558C74.7858 56.7125 74.7482 56.867 74.6762 57.0062C74.6041 57.1454 74.4997 57.2653 74.3718 57.3558Z" fill="white" fill-opacity="0.55"/>
</svg>
