<svg width="97" height="81" viewBox="0 0 97 81" fill="none" xmlns="http://www.w3.org/2000/svg">
<rect x="78" y="37.9868" width="3.08" height="58" rx="1" transform="rotate(90 78 37.9868)" fill="#7F7369"/>
<rect x="8" y="29.7734" width="13" height="44.1467" fill="#D83D3D"/>
<rect x="24" y="37.9868" width="3" height="37.9867" rx="1" fill="#7F7369"/>
<rect x="30" y="37.9868" width="3" height="37.9867" rx="1" fill="#7F7369"/>
<rect x="36" y="37.9868" width="3" height="37.9867" rx="1" fill="#7F7369"/>
<rect x="41" y="37.9868" width="3" height="37.9867" rx="1" fill="#7F7369"/>
<rect x="47" y="37.9868" width="3" height="37.9867" rx="1" fill="#7F7369"/>
<rect x="53" y="37.9868" width="3" height="37.9867" rx="1" fill="#7F7369"/>
<rect x="59" y="37.9868" width="3" height="37.9867" rx="1" fill="#7F7369"/>
<rect x="64" y="37.9868" width="3" height="37.9867" rx="1" fill="#7F7369"/>
<rect x="70" y="37.9868" width="3" height="37.9867" rx="1" fill="#7F7369"/>
<rect x="77" y="27" width="13" height="47" fill="#D83D3D"/>
<rect width="96" height="29.7733" rx="2" fill="#EDAE6B"/>
<rect x="20" y="11.2935" width="59" height="7.18667" rx="2" fill="#7F7369"/>
<path d="M93 77H4" stroke="#7F7369" stroke-width="7" stroke-linecap="round" stroke-linejoin="round"/>
</svg>
