<svg width="86" height="87" viewBox="0 0 86 87" fill="none" xmlns="http://www.w3.org/2000/svg">
<path d="M75.2416 81.7604H8.98184H8.48364V37.7948L41.8626 12.387L75.2416 37.7948V81.7604Z" fill="#F9B938"/>
<path d="M4 37.2968L41.8627 8.40161L79.7254 37.2968" stroke="#7F7369" stroke-width="7" stroke-linecap="round" stroke-linejoin="round"/>
<path d="M28.9097 49.7698C28.9097 47.0084 31.1482 44.7698 33.9097 44.7698H50.8121C53.5735 44.7698 55.8121 47.0084 55.8121 49.7698V82.6325H28.9097V49.7698Z" fill="#7F7369"/>
<circle cx="64.2088" cy="18.6219" r="10.109" fill="white"/>
<path d="M60.9721 21.4149L57.5969 18.0397C57.3124 17.7552 56.9632 17.613 56.5494 17.613C56.1356 17.613 55.7735 17.7682 55.4631 18.0785C55.1786 18.363 55.0364 18.7251 55.0364 19.1648C55.0364 19.6045 55.1786 19.9666 55.4631 20.2511L59.8858 24.6738C60.1703 24.9583 60.5324 25.1005 60.9721 25.1005C61.4118 25.1005 61.7739 24.9583 62.0584 24.6738L70.8649 15.8672C71.1494 15.5827 71.2917 15.2335 71.2917 14.8197C71.2917 14.4059 71.1365 14.0438 70.8261 13.7335C70.5416 13.449 70.1795 13.3067 69.7398 13.3067C69.3002 13.3067 68.9381 13.449 68.6536 13.7335L60.9721 21.4149ZM63.1446 34.1398C60.9979 34.1398 58.9806 33.7322 57.0925 32.917C55.2045 32.1028 53.5622 30.9974 52.1655 29.6008C50.7689 28.2041 49.6635 26.5618 48.8493 24.6738C48.0341 22.7857 47.6265 20.7684 47.6265 18.6217C47.6265 16.475 48.0341 14.4576 48.8493 12.5696C49.6635 10.6816 50.7689 9.03921 52.1655 7.64258C53.5622 6.24594 55.2045 5.14002 57.0925 4.32479C58.9806 3.51061 60.9979 3.10352 63.1446 3.10352C65.2913 3.10352 67.3087 3.51061 69.1967 4.32479C71.0848 5.14002 72.7271 6.24594 74.1237 7.64258C75.5204 9.03921 76.6258 10.6816 77.44 12.5696C78.2552 14.4576 78.6628 16.475 78.6628 18.6217C78.6628 20.7684 78.2552 22.7857 77.44 24.6738C76.6258 26.5618 75.5204 28.2041 74.1237 29.6008C72.7271 30.9974 71.0848 32.1028 69.1967 32.917C67.3087 33.7322 65.2913 34.1398 63.1446 34.1398Z" fill="#64CC56"/>
<path d="M81.7665 83H5.15112" stroke="#7F7369" stroke-width="7" stroke-linecap="round" stroke-linejoin="round"/>
</svg>
