<svg width="79" height="86" viewBox="0 0 79 86" fill="none" xmlns="http://www.w3.org/2000/svg">
<rect y="10.2178" width="59.604" height="75.7822" rx="7" fill="#E3E3E3"/>
<rect x="5.10889" y="23.8416" width="16.1782" height="3.40594" rx="1.70297" fill="#565658" fill-opacity="0.42"/>
<rect x="5.10889" y="64.7129" width="16.1782" height="3.40594" rx="1.70297" fill="#565658" fill-opacity="0.42"/>
<rect x="5.10889" y="40.0198" width="46.8317" height="3.40594" rx="1.70297" fill="#565658" fill-opacity="0.42"/>
<rect x="5.10889" y="47.6831" width="46.8317" height="3.40594" rx="1.70297" fill="#565658" fill-opacity="0.42"/>
<rect x="5.10889" y="55.3464" width="46.8317" height="3.40594" rx="1.70297" fill="#565658" fill-opacity="0.42"/>
<rect x="8.51489" width="59.604" height="75.7822" rx="7" fill="#F1F1F4"/>
<rect x="13.6238" y="13.6238" width="16.1782" height="3.40594" rx="1.70297" fill="#565658" fill-opacity="0.42"/>
<rect x="13.6238" y="54.4951" width="16.1782" height="3.40594" rx="1.70297" fill="#565658" fill-opacity="0.42"/>
<rect x="13.6238" y="29.802" width="46.8317" height="3.40594" rx="1.70297" fill="#565658" fill-opacity="0.42"/>
<rect x="13.6238" y="37.4653" width="46.8317" height="3.40594" rx="1.70297" fill="#565658" fill-opacity="0.42"/>
<rect x="13.6238" y="45.1287" width="46.8317" height="3.40594" rx="1.70297" fill="#565658" fill-opacity="0.42"/>
<path d="M76.3031 83.0578C74.9607 83.4929 73.6805 83.5745 73.4402 83.2375L64.1107 62.8877C63.8713 62.5518 64.7616 61.9244 66.1057 61.4865C67.4464 61.0509 68.7326 60.9686 68.9703 61.3069L78.2981 81.6566C78.5367 81.9919 77.6429 82.6223 76.3031 83.0596" fill="#565658"/>
<path d="M74.4623 47.42C74.4623 56.2464 67.3082 63.3896 58.491 63.3896C49.6723 63.3896 42.5198 56.2465 42.5198 47.42C42.5198 38.5935 49.6723 31.4504 58.491 31.4504C67.3082 31.4504 74.4623 38.5936 74.4623 47.42Z" stroke="#565658" stroke-width="5"/>
<path d="M58.4908 62.1584C66.7204 62.1584 73.3918 55.487 73.3918 47.2574C73.3918 39.0278 66.7204 32.3564 58.4908 32.3564C50.2612 32.3564 43.5898 39.0278 43.5898 47.2574C43.5898 55.487 50.2612 62.1584 58.4908 62.1584Z" fill="#57C6E9" fill-opacity="0.7"/>
<path d="M50.3048 34.7771C48.2404 36.1317 46.5457 37.9789 45.3734 40.1521C44.2011 42.3252 43.5882 44.756 43.5898 47.2251C43.5898 55.4533 50.2607 62.1261 58.4908 62.1261C58.6359 62.1261 58.7819 62.1065 58.9269 62.1026C44.3102 54.8574 47.9205 39.8134 50.3048 34.7771Z" fill="#27A8E0" fill-opacity="0.6"/>
</svg>
