<svg width="50" height="69" viewBox="0 0 50 69" fill="none" xmlns="http://www.w3.org/2000/svg">
<path d="M48.0846 18.3635C47.1793 15.2953 45.6786 12.4355 43.6681 9.9474C41.6576 7.45926 39.1767 5.39148 36.367 3.86213C33.5574 2.33277 30.474 1.37179 27.293 1.03405C24.112 0.696318 20.8956 0.98844 17.8274 1.89374C14.7593 2.79904 11.8995 4.29978 9.41139 6.31029C6.92325 8.3208 4.85547 10.8017 3.32612 13.6113C1.79676 16.421 0.835781 19.5043 0.498044 22.6854C0.160308 25.8664 0.452428 29.0828 1.35773 32.1509C2.72367 36.7802 5.35918 40.683 8.75366 43.6289L8.72696 43.6368L37.5238 68.6465L48.1311 32.01L48.1077 32.0169C49.4074 27.5574 49.3994 22.8185 48.0846 18.3635ZM27.6756 35.2701C25.0201 36.0537 22.162 35.7502 19.7301 34.4265C17.2982 33.1028 15.4918 30.8672 14.7083 28.2117C13.9247 25.5561 14.2281 22.698 15.5519 20.2661C16.8756 17.8343 19.1111 16.0279 21.7667 15.2443C24.4223 14.4607 27.2804 14.7642 29.7123 16.0879C32.1441 17.4116 33.9505 19.6471 34.7341 22.3027C35.5177 24.9583 35.2142 27.8164 33.8905 30.2483C32.5668 32.6801 30.3312 34.4865 27.6756 35.2701Z" fill="url(#paint0_linear_123_719)"/>
<defs>
<linearGradient id="paint0_linear_123_719" x1="21.6813" y1="14.1101" x2="37.5238" y2="68.6465" gradientUnits="userSpaceOnUse">
<stop stop-color="#858585"/>
<stop offset="1" stop-color="#565658"/>
</linearGradient>
</defs>
</svg>
