<svg width="50" height="69" viewBox="0 0 50 69" fill="none" xmlns="http://www.w3.org/2000/svg">
<path d="M48.6206 18.3635C47.7153 15.2953 46.2146 12.4355 44.2041 9.9474C42.1936 7.45926 39.7127 5.39148 36.903 3.86213C34.0934 2.33277 31.01 1.37179 27.829 1.03405C24.648 0.696319 21.4316 0.98844 18.3635 1.89374C15.2953 2.79904 12.4355 4.29978 9.9474 6.31029C7.45926 8.32081 5.39148 10.8017 3.86213 13.6113C2.33277 16.421 1.37179 19.5043 1.03406 22.6854C0.696319 25.8664 0.988439 29.0828 1.89374 32.1509C3.25968 36.7802 5.89519 40.683 9.28967 43.6289L9.26297 43.6368L38.0598 68.6465L48.6671 32.01L48.6437 32.0169C49.9434 27.5574 49.9354 22.8185 48.6206 18.3635ZM28.2117 35.2701C25.5561 36.0537 22.698 35.7502 20.2661 34.4265C17.8343 33.1028 16.0279 30.8672 15.2443 28.2117C14.4607 25.5561 14.7642 22.698 16.0879 20.2661C17.4116 17.8343 19.6471 16.0279 22.3027 15.2443C24.9583 14.4607 27.8164 14.7642 30.2483 16.0879C32.6801 17.4116 34.4865 19.6471 35.2701 22.3027C36.0537 24.9583 35.7502 27.8164 34.4265 30.2483C33.1028 32.6801 30.8672 34.4865 28.2117 35.2701Z" fill="url(#paint0_linear_123_1039)"/>
<defs>
<linearGradient id="paint0_linear_123_1039" x1="22.2173" y1="14.1101" x2="38.0599" y2="68.6465" gradientUnits="userSpaceOnUse">
<stop stop-color="#FF6868"/>
<stop offset="1" stop-color="#E90C0C"/>
</linearGradient>
</defs>
</svg>
