<svg width="49" height="49" viewBox="0 0 49 49" fill="none" xmlns="http://www.w3.org/2000/svg">
<circle cx="24.5" cy="24.5" r="24.5" fill="white"/>
<path d="M32.265 35.8077H15.7746C15.4622 35.8077 15.1626 35.9566 14.9417 36.2217C14.7208 36.4867 14.5967 36.8463 14.5967 37.2211C14.5967 37.596 14.7208 37.9555 14.9417 38.2206C15.1626 38.4857 15.4622 38.6346 15.7746 38.6346H32.265C32.5773 38.6346 32.8769 38.4857 33.0978 38.2206C33.3187 37.9555 33.4428 37.596 33.4428 37.2211C33.4428 36.8463 33.3187 36.4867 33.0978 36.2217C32.8769 35.9566 32.5773 35.8077 32.265 35.8077Z" fill="#FE6D4D"/>
<path d="M32.1105 17.8286C32.1105 16.7248 31.8931 15.6318 31.4707 14.612C31.0483 13.5921 30.4291 12.6655 29.6486 11.885C28.868 11.1044 27.9414 10.4853 26.9216 10.0629C25.9018 9.64045 24.8088 9.42303 23.7049 9.42303C22.6011 9.42303 21.508 9.64045 20.4882 10.0629C19.4684 10.4853 18.5418 11.1044 17.7613 11.885C16.9807 12.6655 16.3616 13.5921 15.9392 14.612C15.5167 15.6318 15.2993 16.7248 15.2993 17.8286C15.2993 19.4941 15.7904 21.0432 16.6262 22.3497H16.6166L23.7049 33.439L30.7932 22.3497H30.7848C31.6505 21.0007 32.1106 19.4315 32.1105 17.8286ZM23.7049 21.431C22.7495 21.431 21.8332 21.0515 21.1576 20.3759C20.4821 19.7003 20.1025 18.7841 20.1025 17.8286C20.1025 16.8732 20.4821 15.9569 21.1576 15.2814C21.8332 14.6058 22.7495 14.2262 23.7049 14.2262C24.6603 14.2262 25.5766 14.6058 26.2522 15.2814C26.9278 15.9569 27.3073 16.8732 27.3073 17.8286C27.3073 18.7841 26.9278 19.7003 26.2522 20.3759C25.5766 21.0515 24.6603 21.431 23.7049 21.431Z" fill="#FE6D4D"/>
</svg>
