<svg width="33" height="34" viewBox="0 0 33 34" fill="none" xmlns="http://www.w3.org/2000/svg">
<path d="M30.4399 7.97C25.5199 0.199999 15.4749 -2.11 7.68491 2.72C0.0999141 7.55 -2.36009 18.05 2.55991 25.82L2.96991 26.45L1.32991 32.75L7.47991 31.07L8.09491 31.49C10.7599 32.96 13.6299 33.8 16.4999 33.8C19.5749 33.8 22.6499 32.96 25.3149 31.28C32.8999 26.24 35.1549 15.95 30.4399 7.97ZM26.1349 24.14C25.3149 25.4 24.2899 26.24 22.8549 26.45C22.0349 26.45 21.0099 26.87 16.9099 25.19C13.4249 23.51 10.5549 20.78 8.50491 17.63C7.27491 16.16 6.65991 14.27 6.45491 12.38C6.45491 10.7 7.06991 9.23 8.09491 8.18C8.50491 7.76 8.91491 7.55 9.32491 7.55H10.3499C10.7599 7.55 11.1699 7.55 11.3749 8.39C11.7849 9.44 12.8099 11.96 12.8099 12.17C13.0149 12.38 13.0149 12.8 12.8099 13.01C13.0149 13.43 12.8099 13.85 12.6049 14.06C12.3999 14.27 12.1949 14.69 11.9899 14.9C11.5799 15.11 11.3749 15.53 11.5799 15.95C12.3999 17.21 13.4249 18.47 14.4499 19.52C15.6799 20.57 16.9099 21.41 18.3449 22.04C18.7549 22.25 19.1649 22.25 19.3699 21.83C19.5749 21.41 20.5999 20.36 21.0099 19.94C21.4199 19.52 21.6249 19.52 22.0349 19.73L25.3149 21.41C25.7249 21.62 26.1349 21.83 26.3399 22.04C26.5449 22.67 26.5449 23.51 26.1349 24.14Z" fill="#565658"/>
</svg>
