<svg width="26" height="21" viewBox="0 0 26 21" fill="none" xmlns="http://www.w3.org/2000/svg">
<path d="M25.4574 3.28041C25.3094 2.64519 25.0192 2.06591 24.6158 1.60053C24.2125 1.13516 23.7102 0.800024 23.1592 0.628663C21.1308 1.27562e-07 13 0 13 0C13 0 4.8692 -1.27562e-07 2.84085 0.625318C2.28957 0.796124 1.78699 1.13108 1.38359 1.59653C0.980185 2.06199 0.690158 2.64157 0.542634 3.27707C-1.10694e-07 5.61783 0 10.5 0 10.5C0 10.5 -1.10694e-07 15.3822 0.542634 17.7196C0.841518 19.0104 1.72366 20.0269 2.84085 20.3713C4.8692 21 13 21 13 21C13 21 21.1308 21 23.1592 20.3713C24.2792 20.0269 25.1585 19.0104 25.4574 17.7196C26 15.3822 26 10.5 26 10.5C26 10.5 26 5.61783 25.4574 3.28041ZM10.4174 14.9809V6.01911L17.1496 10.4666L10.4174 14.9809Z" fill="#565658"/>
</svg>
